<svg width="119" height="118" viewBox="0 0 119 118" fill="none" xmlns="http://www.w3.org/2000/svg">
<path d="M59.5394 117.214C92.0063 117.214 118.326 91.0709 118.326 58.8214C118.326 26.572 92.0063 0.428589 59.5394 0.428589C27.0725 0.428589 0.75293 26.572 0.75293 58.8214C0.75293 91.0709 27.0725 117.214 59.5394 117.214Z" fill="#32E3B5"/>
<path d="M59.5394 117.214C92.0063 117.214 118.326 91.0709 118.326 58.8215H0.75293C0.75293 91.0709 27.0726 117.214 59.5394 117.214Z" fill="#32E3B5"/>
<path d="M12.5126 37.2336C11.8529 37.2336 11.209 36.9029 10.8394 36.303C10.2743 35.3862 10.5645 34.1879 11.4877 33.6266C15.0573 31.4564 18.8471 29.5413 22.7517 27.9348C32.5825 23.8903 42.9628 21.8393 53.6036 21.8393H65.4765C76.1171 21.8393 86.4974 23.8901 96.3284 27.935C100.232 29.5413 104.022 31.4564 107.592 33.6269C108.515 34.1879 108.806 35.3862 108.241 36.3032C107.676 37.22 106.469 37.5085 105.546 36.9472C102.15 34.8826 98.5437 33.0602 94.8284 31.5318C85.4755 27.6834 75.5998 25.7322 65.4765 25.7322H53.6036C43.4798 25.7322 33.6044 27.6834 24.2515 31.5315C20.5355 33.0605 16.9292 34.8826 13.5337 36.947C13.2146 37.1414 12.8614 37.2336 12.5126 37.2336Z" fill="#08B98B"/>
<path d="M65.4759 31.5714H53.6032C34.82 31.5714 16.8061 38.9832 3.52422 52.1758C1.74985 53.9383 0.75293 56.3288 0.75293 58.8214C0.75293 61.3141 1.74985 63.7045 3.52422 65.467C16.8058 78.6596 34.82 86.0714 53.603 86.0714H65.4757C84.2589 86.0714 102.273 78.6596 115.555 65.467C117.329 63.7045 118.326 61.3141 118.326 58.8214C118.326 56.3288 117.329 53.9383 115.555 52.1758C102.273 38.9832 84.2589 31.5714 65.4759 31.5714Z" fill="white"/>
<path d="M115.555 52.1758C102.273 38.9829 84.2589 31.5714 65.4759 31.5714H53.6032C34.82 31.5714 16.8061 38.9829 3.52422 52.1758C1.74985 53.9383 0.75293 56.3288 0.75293 58.8214C0.75293 59.4808 0.824698 60.1326 0.960152 60.7678C1.33663 59.0015 2.21916 57.365 3.52422 56.0687C16.8058 42.8758 34.82 35.4643 53.603 35.4643H65.4757C84.2589 35.4643 102.273 42.8758 115.555 56.0687C116.86 57.365 117.742 59.0015 118.119 60.7678C118.254 60.1326 118.326 59.4808 118.326 58.8214C118.326 56.3288 117.329 53.9383 115.555 52.1758Z" fill="#08B98B"/>
<path d="M59.5392 86.0714C74.6904 86.0714 86.9729 73.8712 86.9729 58.8214C86.9729 43.7717 74.6904 31.5714 59.5392 31.5714C44.388 31.5714 32.1055 43.7717 32.1055 58.8214C32.1055 73.8712 44.388 86.0714 59.5392 86.0714Z" fill="#4747D9"/>
<path d="M53.6032 35.4643H65.4759C68.5507 35.4643 71.6041 35.6667 74.6201 36.0567C70.293 33.2225 65.1109 31.5714 59.5397 31.5714C53.9684 31.5714 48.7864 33.2225 44.459 36.0567C47.4752 35.6667 50.5284 35.4643 53.6032 35.4643Z" fill="#0569A5"/>
<path d="M59.5405 70.5001C66.0339 70.5001 71.2978 65.2714 71.2978 58.8215C71.2978 52.3716 66.0339 47.1429 59.5405 47.1429C53.0471 47.1429 47.7832 52.3716 47.7832 58.8215C47.7832 65.2714 53.0471 70.5001 59.5405 70.5001Z" fill="#232323"/>
<path d="M51.7015 58.8214C56.0304 58.8214 59.5397 55.3356 59.5397 51.0357C59.5397 46.7358 56.0304 43.25 51.7015 43.25C47.3726 43.25 43.8633 46.7358 43.8633 51.0357C43.8633 55.3356 47.3726 58.8214 51.7015 58.8214Z" fill="white"/>
</svg>
