<svg width="18" height="18" viewBox="0 0 18 18" fill="none" xmlns="http://www.w3.org/2000/svg">
<path d="M9 2C6.24305 2 4 4.24306 4 7.00001C4 7.82765 4.20692 8.64825 4.60029 9.3761L8.72657 16.8389C8.78151 16.9384 8.88618 17 9 17C9.11382 17 9.2185 16.9384 9.27343 16.8389L13.4012 9.37364C13.7931 8.64825 14 7.82762 14 6.99998C14 4.24306 11.7569 2 9 2ZM9 9.5C7.62153 9.5 6.50002 8.37849 6.50002 7.00001C6.50002 5.62153 7.62153 4.50002 9 4.50002C10.3785 4.50002 11.5 5.62153 11.5 7.00001C11.5 8.37849 10.3785 9.5 9 9.5Z" fill="#232323"/>
</svg>
