<svg width="178" height="110" viewBox="0 0 178 110" fill="none" xmlns="http://www.w3.org/2000/svg">
<path opacity="0.7" d="M82.8906 16.4333C111.303 29.1624 137.796 19.7406 146.143 17.0801C136.688 26.4615 117.473 55.7394 127.041 68.6678L110.293 48.664C90.1918 60.0842 50.5 79 49.6981 104.211C49.3303 94.6431 46.5 72 17.6862 56.4711C50 65.5 78.5774 47.9622 100.087 35.2232L82.8906 16.4333Z" fill="#32E3B5"/>
<path d="M0.412437 55.2345V39.3183H4.87308V45.2755H10.5983V39.3183H15.059V55.2345H10.5983V49.1863H4.87308V55.2345H0.412437Z" fill="#4747D9"/>
<path d="M17.9962 55.2345V39.3183H22.4798V55.2345H17.9962Z" fill="#4747D9"/>
<path d="M33.6348 55.5528C31.1056 55.5528 29.0132 54.7797 27.3577 53.2336C25.7022 51.6723 24.8745 49.6866 24.8745 47.2764C24.8745 44.942 25.6946 42.979 27.3347 41.3874C28.9902 39.7958 31.0596 39 33.5428 39C36.0874 39 38.2641 39.7731 40.0729 41.3192L37.4517 44.4342C36.2407 43.4338 34.9454 42.9336 33.5658 42.9336C32.4009 42.9336 31.4198 43.358 30.6227 44.2069C29.841 45.0557 29.4501 46.1016 29.4501 47.3446C29.4501 48.6331 29.8563 49.6941 30.6687 50.5278C31.4965 51.3464 32.5465 51.7557 33.8188 51.7557C34.8611 51.7557 35.7195 51.5359 36.394 51.0963V49.1636H33.2209V45.9349H40.6247V53.0972C38.6166 54.7343 36.2867 55.5528 33.6348 55.5528Z" fill="#4747D9"/>
<path d="M43.0977 55.2345V39.3183H47.5583V45.2755H53.2836V39.3183H57.7442V55.2345H53.2836V49.1863H47.5583V55.2345H43.0977Z" fill="#4747D9"/>
<path d="M66.9664 55.2345V39.3183H79.8425V43.1837H71.4271V45.8894H79.0377V49.5501H71.4271V55.2345H66.9664Z" fill="#4747D9"/>
<path d="M81.8759 55.2345V39.3183H86.3366V51.3691H94.1312V55.2345H81.8759Z" fill="#4747D9"/>
<path d="M102.838 55.5301C100.478 55.5301 98.6458 54.9237 97.3429 53.7111C96.0399 52.4984 95.3885 50.6794 95.3885 48.2541V39.3183H99.9181V48.1632C99.9181 49.2849 100.179 50.1337 100.7 50.7097C101.236 51.2706 101.964 51.551 102.884 51.551C103.804 51.551 104.524 51.2782 105.046 50.7325C105.582 50.1868 105.85 49.3682 105.85 48.2768V39.3183H110.38V48.1404C110.38 50.6264 109.713 52.4833 108.38 53.7111C107.061 54.9237 105.214 55.5301 102.838 55.5301Z" fill="#4747D9"/>
<path d="M113.02 55.2345V39.3183H125.965V43.07H117.434V45.4801H125.16V48.959H117.434V51.4828H126.08V55.2345H113.02Z" fill="#4747D9"/>
<path d="M128.356 55.2345V39.3183H132.518L139.14 47.7311V39.3183H143.554V55.2345H139.646L132.771 46.5033V55.2345H128.356Z" fill="#4747D9"/>
<path d="M154.158 55.5528C151.828 55.5528 149.858 54.7722 148.248 53.2109C146.654 51.6344 145.857 49.6562 145.857 47.2764C145.857 44.942 146.662 42.979 148.271 41.3874C149.896 39.7958 151.92 39 154.342 39C157.208 39 159.461 40.1217 161.102 42.3651L157.837 44.8662C156.84 43.6384 155.66 43.0245 154.296 43.0245C153.177 43.0245 152.257 43.4338 151.536 44.2523C150.816 45.0709 150.456 46.0789 150.456 47.2764C150.456 48.4891 150.816 49.5047 151.536 50.3232C152.257 51.1266 153.177 51.5283 154.296 51.5283C155.077 51.5283 155.744 51.3691 156.296 51.0508C156.848 50.7173 157.392 50.2323 157.929 49.5956L161.286 51.9603C160.442 53.0972 159.461 53.9839 158.342 54.6206C157.223 55.2421 155.829 55.5528 154.158 55.5528Z" fill="#4747D9"/>
<path d="M167.4 55.2345V49.2773L161.284 39.3183H166.366L169.677 45.1164L173.011 39.3183H178L171.884 49.2091V55.2345H167.4Z" fill="#4747D9"/>
<path d="M0 70.8664V63.0741H5.86489V64.3209H1.38461V66.4471H5.35833V67.6938H1.38461V70.8664H0Z" fill="#4747D9"/>
<path d="M7.4662 70.8664V63.0741H8.85081V70.8664H7.4662Z" fill="#4747D9"/>
<path d="M10.9602 70.8664V63.0741H12.2435L16.4648 68.4619V63.0741H17.8269V70.8664H16.6675L12.3223 65.3228V70.8664H10.9602Z" fill="#4747D9"/>
<path d="M19.8536 70.8664V63.0741H22.7917C24.0225 63.0741 25.0281 63.4452 25.8086 64.1873C26.5891 64.922 26.9793 65.8497 26.9793 66.9703C26.9793 68.0835 26.5853 69.0111 25.7973 69.7532C25.0168 70.4954 24.015 70.8664 22.7917 70.8664H19.8536ZM21.2383 69.6197H22.7917C23.6097 69.6197 24.2701 69.3748 24.7729 68.885C25.2758 68.3877 25.5272 67.7495 25.5272 66.9703C25.5272 66.1985 25.2758 65.564 24.7729 65.0667C24.2701 64.5695 23.6097 64.3209 22.7917 64.3209H21.2383V69.6197Z" fill="#4747D9"/>
<path d="M34.353 70.8664V67.794L31.2236 63.0741H32.8558L35.0622 66.525L37.2911 63.0741H38.8783L35.7489 67.7606V70.8664H34.353Z" fill="#4747D9"/>
<path d="M46.1419 69.82C45.3614 70.6067 44.3745 71 43.1813 71C41.9881 71 41.0049 70.6104 40.232 69.8312C39.459 69.0519 39.0725 68.0983 39.0725 66.9703C39.0725 65.8571 39.4627 64.9072 40.2432 64.1205C41.0237 63.3339 42.0106 62.9406 43.2038 62.9406C44.3971 62.9406 45.3802 63.3302 46.1531 64.1094C46.9261 64.8886 47.3126 65.8423 47.3126 66.9703C47.3126 68.0835 46.9224 69.0334 46.1419 69.82ZM41.2789 68.9406C41.7892 69.4749 42.4308 69.7421 43.2038 69.7421C43.9768 69.7421 44.6109 69.4749 45.1062 68.9406C45.6091 68.4063 45.8605 67.7495 45.8605 66.9703C45.8605 66.1985 45.6053 65.5454 45.095 65.0111C44.5922 64.4693 43.9543 64.1984 43.1813 64.1984C42.4083 64.1984 41.7704 64.4656 41.2676 64.9999C40.7723 65.5343 40.5246 66.191 40.5246 66.9703C40.5246 67.7421 40.7761 68.3989 41.2789 68.9406Z" fill="#4747D9"/>
<path d="M52.2163 70.9889C51.1731 70.9889 50.3514 70.6957 49.751 70.1095C49.1581 69.5232 48.8617 68.6734 48.8617 67.5603V63.0741H50.2463V67.5046C50.2463 68.217 50.4227 68.7662 50.7754 69.1521C51.1281 69.538 51.6159 69.731 52.2388 69.731C52.8617 69.731 53.3457 69.5454 53.6909 69.1744C54.0437 68.8033 54.22 68.2653 54.22 67.5603V63.0741H55.6046V67.4935C55.6046 68.6289 55.3044 69.4972 54.7041 70.0983C54.1037 70.692 53.2744 70.9889 52.2163 70.9889Z" fill="#4747D9"/>
<path d="M57.5052 70.8664V63.0741H61.0174C61.933 63.0741 62.6496 63.3005 63.1675 63.7532C63.6853 64.1985 63.9442 64.7996 63.9442 65.5565C63.9442 66.1725 63.7754 66.6809 63.4376 67.0816C63.0999 67.4749 62.6421 67.7532 62.0643 67.9165L64.1919 70.8664H62.5596L60.6009 68.1503H58.8898V70.8664H57.5052ZM58.8898 66.9369H60.9161C61.4114 66.9369 61.8054 66.8181 62.0981 66.5807C62.3907 66.3432 62.5371 66.0204 62.5371 65.6122C62.5371 65.1966 62.3945 64.8775 62.1093 64.6549C61.8241 64.4322 61.4226 64.3209 60.9048 64.3209H58.8898V66.9369Z" fill="#4747D9"/>
<path d="M71.6154 70.9221L68.3396 63.0741H69.8706L72.2458 69.0631L74.6098 63.0741H76.1069L72.8312 70.9221H71.6154Z" fill="#4747D9"/>
<path d="M83.6945 69.82C82.914 70.6067 81.9272 71 80.7339 71C79.5407 71 78.5576 70.6104 77.7846 69.8312C77.0116 69.0519 76.6251 68.0983 76.6251 66.9703C76.6251 65.8571 77.0154 64.9072 77.7958 64.1205C78.5763 63.3339 79.5632 62.9406 80.7564 62.9406C81.9497 62.9406 82.9328 63.3302 83.7058 64.1094C84.4787 64.8886 84.8652 65.8423 84.8652 66.9703C84.8652 68.0835 84.475 69.0334 83.6945 69.82ZM78.8315 68.9406C79.3418 69.4749 79.9835 69.7421 80.7564 69.7421C81.5294 69.7421 82.1636 69.4749 82.6589 68.9406C83.1617 68.4063 83.4131 67.7495 83.4131 66.9703C83.4131 66.1985 83.1579 65.5454 82.6476 65.0111C82.1448 64.4693 81.5069 64.1984 80.7339 64.1984C79.9609 64.1984 79.3231 64.4656 78.8202 64.9999C78.3249 65.5343 78.0773 66.191 78.0773 66.9703C78.0773 67.7421 78.3287 68.3989 78.8315 68.9406Z" fill="#4747D9"/>
<path d="M86.6169 70.8664V63.0741H88.0015V70.8664H86.6169Z" fill="#4747D9"/>
<path d="M93.7694 71C92.6287 71 91.6756 70.6141 90.9102 69.8423C90.1447 69.0631 89.7619 68.1057 89.7619 66.9703C89.7619 65.8423 90.1447 64.8886 90.9102 64.1094C91.6756 63.3302 92.6475 62.9406 93.8257 62.9406C94.5086 62.9406 95.0865 63.0444 95.5593 63.2522C96.0396 63.46 96.4899 63.7606 96.9101 64.1539L96.0208 65.1669C95.3154 64.5213 94.5799 64.1984 93.8145 64.1984C93.064 64.1984 92.4411 64.4656 91.9458 64.9999C91.458 65.5343 91.2141 66.191 91.2141 66.9703C91.2141 67.7421 91.4617 68.3989 91.9571 68.9406C92.4524 69.4749 93.0715 69.7421 93.8145 69.7421C94.2647 69.7421 94.6625 69.6605 95.0077 69.4972C95.3529 69.3265 95.7094 69.0705 96.0771 68.7291L96.9664 69.6197C96.5237 70.0798 96.0546 70.4249 95.5593 70.6549C95.064 70.885 94.4674 71 93.7694 71Z" fill="#4747D9"/>
<path d="M98.4217 70.8664V63.0741H104.264V64.2986H99.8063V66.3246H103.758V67.5491H99.8063V69.6419H104.32V70.8664H98.4217Z" fill="#4747D9"/>
<path d="M109.417 70.8664V63.0741H110.801V70.8664H109.417Z" fill="#4747D9"/>
<path d="M112.911 70.8664V63.0741H114.194L118.415 68.4619V63.0741H119.777V70.8664H118.618L114.273 65.3228V70.8664H112.911Z" fill="#4747D9"/>
<path d="M125.179 70.8664V63.0741H131.021V64.2986H126.564V66.3246H130.515V67.5491H126.564V69.6419H131.078V70.8664H125.179Z" fill="#4747D9"/>
<path d="M132.72 70.8664V63.0741H134.004L138.225 68.4619V63.0741H139.587V70.8664H138.428L134.082 65.3228V70.8664H132.72Z" fill="#4747D9"/>
<path d="M145.351 71C144.135 71 143.149 70.6215 142.391 69.8646C141.64 69.1002 141.265 68.1354 141.265 66.9703C141.265 65.8571 141.648 64.9072 142.413 64.1205C143.186 63.3339 144.158 62.9406 145.329 62.9406C145.989 62.9406 146.552 63.0296 147.017 63.2077C147.482 63.3784 147.929 63.6419 148.357 63.9981L147.479 65.0333C147.149 64.7513 146.815 64.5435 146.477 64.41C146.147 64.269 145.745 64.1984 145.272 64.1984C144.552 64.1984 143.944 64.4693 143.449 65.0111C142.961 65.5528 142.717 66.2059 142.717 66.9703C142.717 67.7792 142.965 68.4471 143.46 68.974C143.955 69.4935 144.601 69.7532 145.396 69.7532C146.132 69.7532 146.766 69.5566 147.299 69.1632V67.705H145.284V66.5139H148.638V69.7866C147.685 70.5955 146.589 71 145.351 71Z" fill="#4747D9"/>
<path d="M150.441 70.8664V63.0741H151.826V69.6197H155.969V70.8664H150.441Z" fill="#4747D9"/>
<path d="M157.49 70.8664V63.0741H158.874V70.8664H157.49Z" fill="#4747D9"/>
<path d="M163.742 70.9777C162.488 70.9777 161.393 70.5621 160.455 69.731L161.288 68.7514C162.076 69.4267 162.905 69.7644 163.776 69.7644C164.203 69.7644 164.541 69.6753 164.789 69.4972C165.044 69.3117 165.171 69.0668 165.171 68.7625C165.171 68.4731 165.051 68.243 164.811 68.0723C164.571 67.8942 164.098 67.7235 163.393 67.5603C162.477 67.345 161.809 67.0742 161.389 66.7476C160.976 66.4137 160.77 65.9053 160.77 65.2226C160.77 64.5547 161.021 64.0129 161.524 63.5973C162.027 63.1743 162.672 62.9628 163.46 62.9628C164.541 62.9628 165.494 63.2893 166.32 63.9424L165.577 64.9777C164.849 64.4433 164.136 64.1762 163.438 64.1762C163.04 64.1762 162.725 64.2652 162.492 64.4433C162.267 64.6215 162.155 64.8478 162.155 65.1224C162.155 65.4267 162.278 65.6641 162.526 65.8348C162.781 65.9981 163.28 66.1688 164.023 66.3469C164.894 66.5547 165.532 66.833 165.937 67.1818C166.35 67.5306 166.556 68.0204 166.556 68.6512C166.556 69.371 166.297 69.9388 165.779 70.3544C165.261 70.7699 164.582 70.9777 163.742 70.9777Z" fill="#4747D9"/>
<path d="M168.184 70.8664V63.0741H169.569V66.3135H173.329V63.0741H174.713V70.8664H173.329V67.5825H169.569V70.8664H168.184Z" fill="#4747D9"/>
</svg>
