<svg width="678" height="421" viewBox="0 0 678 421" fill="none" xmlns="http://www.w3.org/2000/svg">
<path opacity="0.55" d="M431.473 103.605C515.833 138.469 592.665 108.582 616.897 100.068C589.994 128.374 536.198 215.827 565.347 252.894L514.548 195.708C456.619 230.903 341.921 289.747 341.736 363.7C339.836 335.692 329.597 269.576 243.821 226.541C339.296 250.226 421.54 196.375 483.484 157.194L431.473 103.605Z" fill="#32E3B5"/>
<path d="M139.005 334V244.053H163.307V314.374H197.944V334H139.005ZM265.743 334H212.341V244.053H265.743V263.556H236.643V277.706H263.59V297.209H236.643V314.189H265.743V334ZM332.004 244.053H359.197L329.728 334H301.119L271.772 244.053H299.089L311.332 289.642C313.875 299.772 315.27 306.827 315.516 310.806C315.803 307.935 316.377 304.346 317.238 300.039C318.1 295.732 318.858 292.349 319.515 289.888L332.004 244.053ZM422.382 334H368.979V244.053H422.382V263.556H393.281V277.706H420.229V297.209H393.281V314.189H422.382V334ZM460.772 334H436.717V238.27H460.772V334ZM588.064 244.053V298.193C588.064 309.965 584.722 319.091 578.036 325.571C571.392 332.011 561.794 335.23 549.243 335.23C536.979 335.23 527.546 332.093 520.942 325.817C514.38 319.542 511.099 310.519 511.099 298.747V244.053H535.523V296.84C535.523 303.197 536.713 307.812 539.092 310.683C541.471 313.554 544.978 314.989 549.612 314.989C554.575 314.989 558.164 313.574 560.379 310.744C562.635 307.873 563.763 303.197 563.763 296.717V244.053H588.064ZM672.229 272.661C672.229 282.71 669.255 290.482 663.308 295.979C657.401 301.434 648.993 304.161 638.083 304.161H631.254V334H606.952V244.053H638.083C649.444 244.053 657.976 246.534 663.677 251.497C669.378 256.46 672.229 263.515 672.229 272.661ZM631.254 284.351H635.684C639.334 284.351 642.226 283.325 644.358 281.274C646.532 279.224 647.619 276.394 647.619 272.784C647.619 266.714 644.256 263.679 637.529 263.679H631.254V284.351Z" fill="#232323"/>
<path d="M201.189 41.3755C206.017 31.5896 210.922 21.7836 222.097 17.3956C231.142 13.8452 240.21 15.9837 247.627 22.3599C268.649 40.4082 248.205 57.4634 271.318 90.5993C278.498 100.896 287.445 109.415 291.386 121.186C296.897 137.671 288.592 144.872 275.588 151.752C213.339 184.67 186.851 107.085 189.099 89.8767C190.763 77.0755 198.079 47.6786 201.189 41.3755Z" fill="#232323"/>
<path d="M126.371 233.183C128.922 232.948 135.335 228.952 137.528 228.693C139.225 228.495 142.89 228.182 144.449 228.049C146.801 221.105 158.914 183.179 160.726 171.947C162.689 159.782 174.773 107.386 174.773 107.386L196.922 112.916C196.922 112.916 184.974 153.054 181.12 172.634C177.812 189.457 156.723 226.401 154.095 230.275C154.089 230.375 154.083 230.466 154.068 230.565C153.323 236.53 150.563 234.349 150.563 234.349L145.793 235.241C145.793 235.241 129.106 235.762 127.992 236.09C126.887 236.418 123.821 233.418 126.371 233.183Z" fill="#F7A491"/>
<path d="M196.319 77.702C180.126 82.0486 168.326 124.539 168.326 124.539C168.326 124.539 192.739 133.092 199.345 129.859C199.345 129.859 208.653 98.2815 211.172 99.5704L196.319 77.702Z" fill="#29D1A6"/>
<path d="M58.6034 303.529C52.9253 316.003 49.6114 328.155 49.2909 329.627C49.1367 330.335 49.9244 333.88 49.7769 334.612C39.1841 347.26 25.012 349.253 12.9657 349.323C19.4639 343.756 28.7988 338.682 29.3528 336.825C30.2367 333.864 34.7915 320.708 37.8119 302.274C45.0537 306.212 50.2885 303.799 58.6034 303.529Z" fill="#F7A491"/>
<path d="M205.77 169.411L223.281 231.104C223.281 231.104 188.448 235.353 175.432 236.878C162.416 238.403 90.3308 236.886 88.4293 238.047C87.0144 238.906 69.0555 285.968 60.7132 312.021C53.0825 313.186 40.3311 310.367 33.6328 307.565C39.7905 269.921 57.049 210.755 61.7574 204.497C69.4055 194.31 205.77 169.411 205.77 169.411Z" fill="#3A3ACA"/>
<path d="M111.143 333.483C107.904 346.8 106.924 359.362 106.884 360.868C106.862 361.593 108.298 364.921 108.299 365.68C100.261 380.086 86.7106 384.704 74.8934 387.033C80.2298 380.348 88.455 373.609 88.6468 371.679C88.9543 368.605 90.9721 354.834 90.4813 336.148C98.3249 338.649 103.019 335.309 111.143 333.483Z" fill="#F7A491"/>
<path d="M230.565 174.161L237.95 188.883C249.198 211.301 237.699 238.459 213.786 246C213.658 246.042 213.53 246.083 213.403 246.117C200.906 250.052 129.812 262.075 128.164 263.57C126.933 264.683 118.117 314.271 114.798 341.425C107.518 344.006 94.4673 343.619 87.3597 342.116C86.3524 303.983 92.2191 242.637 95.6683 235.605C101.288 224.169 230.565 174.161 230.565 174.161Z" fill="#4747D9"/>
<path d="M105.787 361.214C107.78 359.275 113.897 371.054 115.451 373.582C117.202 376.422 116.521 378.438 116.261 378.854C115.582 379.936 78.1158 398.832 69.2153 399.774C68.3757 399.861 66.9647 399.244 66.6286 398.897C63.388 395.627 80.6721 374.172 87.9804 371.677C92.6881 370.064 96.7996 369.93 105.787 361.214Z" fill="#232323"/>
<path d="M48.119 329.96C50.4449 328.426 54.2413 341.139 55.2955 343.917C56.4777 347.038 55.4322 348.888 55.1007 349.242C54.2312 350.178 13.8895 361.716 4.96484 360.971C4.11888 360.9 2.85794 360.026 2.58373 359.625C0.0124815 355.805 21.015 337.969 28.657 336.888C33.5884 336.198 37.6493 336.845 48.119 329.96Z" fill="#232323"/>
<path d="M211.349 78.5509C210.942 78.5245 210.361 78.3452 209.776 78.1154C206.87 77.4018 200.484 76.2126 195.34 77.9976C189.087 80.1693 178.098 103.566 177.059 128.233C177.039 132.017 177.053 135.404 177.092 137.766C177.423 156.476 180.5 191.741 180.779 191.943C187.742 197.089 232.739 181.799 236.002 178.016C239.274 174.233 244.185 125.976 245.803 123.654L251.41 81.7713C246.425 79.939 219.142 78.9973 211.349 78.5509Z" fill="#32E3B5"/>
<path d="M230.115 64.2056C230.115 64.2056 226.347 78.6134 226.538 84.4131C226.73 90.2046 222.813 108.58 210.626 107.858C198.44 107.127 209.837 84.1235 211.357 78.5514C212.868 72.987 214.274 55.5408 214.274 55.5408L230.115 64.2056Z" fill="#F7A491"/>
<path d="M213.449 64.2849C213.949 59.5224 214.266 55.5401 214.266 55.5401L230.115 64.2137C230.115 64.2137 229.349 67.1578 228.522 70.9236C221.271 71.8882 216.26 68.9118 213.449 64.2849Z" fill="#F47458"/>
<path d="M238.695 24.3164C238.695 24.3164 244.763 28.2203 246.573 35.9345C248.383 43.657 244.502 63.0192 227.928 66.6823C211.354 70.3454 205.314 54.4183 209.445 42.5357C213.583 30.662 221.866 15.8212 238.695 24.3164Z" fill="#F7A491"/>
<path d="M207.723 37.7207C207.828 40.9881 209.461 43.5873 211.366 43.5272C213.271 43.4672 214.723 40.7592 214.617 37.4918C214.512 34.2244 212.879 31.6252 210.974 31.6853C209.068 31.7536 207.609 34.4527 207.723 37.7207Z" fill="#F7A491"/>
<path d="M236.848 23.2043C236.848 23.2043 238.384 45.1858 245.18 49.5787C251.967 53.9711 248.392 63.4463 248.392 63.4463C248.392 63.4463 256.241 41.414 251.136 33.8449C246.031 26.2676 236.848 23.2043 236.848 23.2043Z" fill="#232323"/>
<path d="M240.8 52.4392C238.706 55.1556 238.497 58.5028 240.332 59.9225C242.166 61.3422 245.354 60.2811 247.448 57.5648C249.541 54.8484 249.75 51.5013 247.916 50.0815C246.081 48.6701 242.894 49.7229 240.8 52.4392Z" fill="#F7A491"/>
<path d="M217.03 52.1165L228.303 55.7404C228.303 55.7404 226.643 60.0026 221.641 58.5528C215.534 56.7897 217.03 52.1165 217.03 52.1165Z" fill="white"/>
<path d="M312.704 240.883C312.53 240.346 312.074 240.308 311.61 240.261C307.085 239.826 302.563 239.333 298.114 238.37C297.374 238.213 296.646 237.991 295.975 237.672C294.753 237.093 293.523 237.022 292.23 237.288C291.537 237.435 290.837 237.423 290.131 237.377C287.848 237.221 281.49 234.583 278.181 233.785C277.425 233.602 276.857 232.982 276.714 232.222C274.268 219.004 269.108 189.366 268.816 179.716C268.439 167.374 263.553 111.503 263.553 111.503L240.472 116.354C240.472 116.354 247.162 157.79 248.453 177.755C249.456 193.172 262.635 226.607 266.822 236.243C268.714 243.337 273.95 243.868 275.161 244.096C275.853 244.225 276.47 244.615 276.892 245.176C277.66 246.193 278.553 247.093 279.588 247.852C280.36 248.411 280.932 249.115 281.413 249.922C282.286 251.388 283.054 252.913 283.805 254.446C284.307 255.463 284.876 255.808 285.73 255.63C286.643 255.439 287.118 254.803 287.172 253.706C287.252 252.085 286.832 250.59 286.108 249.15C285.428 247.805 285.535 247.062 286.501 245.923C287.051 245.275 287.626 244.645 288.326 244.14C289.043 243.628 289.784 243.259 290.698 243.443C292.299 243.956 293.921 244.394 295.579 244.685L296.931 245.056C296.98 245.068 297.668 245.262 297.668 245.262C297.782 245.303 300.194 245.418 301.024 245.48C301.688 245.523 302.716 245.539 303.626 245.648C304.454 245.744 306.246 245.818 306.304 245.822C307.111 245.857 307.844 245.613 308.477 245.112C308.74 244.904 308.989 244.678 308.889 244.288C308.795 243.932 308.539 243.773 308.186 243.684C307.644 243.549 304.851 243.026 304.892 242.912C305.731 242.966 308.35 243.077 309.191 243.107C310.322 243.147 311.319 242.811 312.154 242.023C312.499 241.728 312.877 241.419 312.704 240.883Z" fill="#F7A491"/>
<path d="M251.689 81.7057C263.007 80.3957 268.998 131.052 268.998 131.052C268.998 131.052 243.686 136.384 237.552 132.326C237.552 132.326 232.395 99.8111 229.732 100.764L251.689 81.7057Z" fill="#32E3B5"/>
</svg>
