<svg width="573" height="636" viewBox="0 0 573 636" fill="none" xmlns="http://www.w3.org/2000/svg">
<g clip-path="url(#clip0_44_340)">
<path opacity="0.5" d="M14.5164 198.474C14.5164 198.474 -24.8153 301.848 30.4579 405.969C85.7171 510.104 199.579 565.072 290.699 612.099C381.82 659.126 476.439 636.223 521.4 559.199C566.36 482.174 504.682 427.192 504.612 317.356C504.541 207.521 520.765 178.443 462.346 85.6521C403.926 -7.13879 260.523 -27.6872 152.121 41.1377C43.719 109.963 14.5164 198.474 14.5164 198.474Z" fill="#32E3B5"/>
<path opacity="0.75" d="M23.008 229.448C72.9769 178.615 115.285 221.263 133.103 152.998C173.366 -1.19409 340.357 0.299301 362.322 109.991C401.894 307.635 574.203 182.119 572.919 323.689C571.551 474.822 462.359 592.541 266.518 604.301C90.9358 614.841 -59.789 313.68 23.008 229.448Z" fill="#4747D9"/>
<path opacity="0.7" d="M23.008 229.448C72.9769 178.615 115.285 221.263 133.103 152.998C173.366 -1.19408 340.357 0.299294 362.322 109.991C401.894 307.635 574.203 182.119 572.919 323.689C571.551 474.822 462.359 592.541 266.518 604.301C90.9358 614.841 -59.789 313.68 23.008 229.448Z" fill="white"/>
<path d="M187.36 564.655C187.36 564.655 171.659 575.525 165.339 574.807C164.549 574.721 163.942 574.477 163.476 574.003C159.343 569.667 156.042 562.071 156.042 562.071C156.042 562.071 158.003 559.299 164.069 566.651L167.92 563.047L159.964 554.905C159.964 554.905 164.436 551.287 172.04 555.896C171.786 555.336 166.876 544.48 170.572 529.69L152.035 511.511L168.442 496.965L169.712 495.845C169.712 495.845 170.742 496.879 172.421 498.487C174.043 500.052 176.258 502.134 178.684 504.288C184.468 509.458 191.466 515.072 194.499 515.015C200.114 514.9 187.36 564.655 187.36 564.655Z" fill="white"/>
<path d="M187.36 564.655C187.36 564.655 171.659 575.525 165.339 574.807C164.549 574.721 163.942 574.477 163.476 574.003C159.343 569.667 156.042 562.071 156.042 562.071C156.042 562.071 158.003 559.299 164.069 566.651L167.92 563.047L159.964 554.905C159.964 554.905 164.436 551.287 172.04 555.896C171.786 555.336 166.876 544.48 170.572 529.69L152.035 511.511L168.442 496.965L169.712 495.845C169.712 495.845 170.742 496.879 172.421 498.487C174.043 500.052 176.258 502.134 178.684 504.288C184.468 509.458 191.466 515.072 194.499 515.015C200.114 514.9 187.36 564.655 187.36 564.655Z" stroke="#232323" stroke-width="0.5" stroke-miterlimit="10" stroke-linecap="round" stroke-linejoin="round"/>
<path d="M167.921 563.047C167.921 563.047 169.289 558.682 172.054 555.91" stroke="#232323" stroke-width="0.5" stroke-miterlimit="10" stroke-linecap="round" stroke-linejoin="round"/>
<path d="M460.934 438.019C458.705 441.465 455.671 444.711 452.046 447.769C452.046 447.769 452.032 447.769 452.032 447.784C423.154 472.123 356.58 484.142 356.58 484.142C356.58 484.142 354.351 487.545 350.923 492.384C344.772 501.086 334.685 514.44 326.461 521.132H326.447C322.976 523.975 319.83 525.612 317.46 525.167L329.945 572.122L335.532 592.513C335.532 592.513 278.128 618.001 179.926 588.851C179.926 588.851 178.811 575.813 179.644 573.027C179.686 572.898 179.728 572.754 179.771 572.625C180.688 570.385 183.622 567.699 183.622 567.699C183.622 567.699 183.072 559.314 182.79 550.77C182.564 544.136 182.508 537.415 182.987 534.429C183.678 530.121 186.782 519.71 188.334 514.598C188.884 512.789 189.251 511.64 189.251 511.64L184.37 465.058L182.959 451.646C182.959 451.646 182.931 451.402 182.888 450.943C182.888 450.842 182.874 450.742 182.86 450.612L182.084 443.418L156.832 451.273C156.832 451.273 158.172 454.274 159.978 458.51C163.293 466.235 168.174 478.01 169.261 482.663C169.345 483.05 169.458 483.409 169.585 483.783C171.927 490.575 180.829 496.735 180.829 496.735L156.916 525.181L149.849 520.155C149.849 520.155 148.819 520.974 146.999 521.979C142.343 524.549 132.595 528.326 121.944 522.553C118.05 520.442 114.044 517.068 110.122 511.913C91.2742 487.071 83.1764 466.839 85.8287 443.031C88.4809 419.208 193.54 345.961 214.376 346.722L245.385 353.7C246.048 353.14 247.868 351.676 249.264 351.747C254.907 352.035 255.048 358.712 255.048 358.712L324.528 370.199C324.528 370.199 331.723 366.538 332.978 366.595C336.054 366.753 337.366 369.438 337.366 369.438C337.366 369.438 355.367 358.468 361.165 361.024C380.224 369.381 474.999 416.265 460.934 438.019Z" fill="#4747D9"/>
<path opacity="0.2" d="M219.538 554.259C219.538 554.259 208.746 567.743 189.461 570.859C185.807 571.447 182.591 572.05 179.783 572.639C180.7 570.399 183.635 567.714 183.635 567.714C183.635 567.714 183.084 559.328 182.802 550.784C190.97 556.212 205.163 562.53 219.538 554.259Z" fill="black"/>
<path opacity="0.2" d="M188.362 514.627C188.912 512.817 189.279 511.669 189.279 511.669L184.397 465.087C191.705 475.741 217.748 512.071 235.707 515.991C254.455 520.083 204.275 527.306 188.362 514.627Z" fill="black"/>
<path opacity="0.2" d="M329.945 572.151C310.336 569.882 282.6 564.856 279.821 554.402C275.504 538.09 296.524 528.297 326.432 521.146C322.962 523.989 319.816 525.626 317.446 525.181L329.945 572.151Z" fill="black"/>
<path opacity="0.2" d="M452.03 447.783C423.152 472.123 356.579 484.142 356.579 484.142C356.579 484.142 354.35 487.545 350.922 492.384C345.293 479.001 337.181 451.316 346.675 417.284C346.675 417.284 351.81 445.558 373.099 452.278C373.099 452.278 356.805 439.929 362.49 410.176C362.49 410.176 368.048 445.184 404.234 454.848C421.826 459.558 439.009 454.36 452.03 447.783Z" fill="black"/>
<path opacity="0.2" d="M182.916 450.971L182.111 443.447L156.859 451.301C156.859 451.301 158.199 454.303 160.005 458.539C150.341 457.519 132.03 466.652 128.827 456.715C124.976 444.71 148.691 448.846 148.691 448.846L171.065 435.592C166.833 417.169 177.597 403.326 177.597 403.326L179.643 416.178C180.63 391.753 190.012 378.384 190.012 378.384C182.196 397.697 182.422 445.242 182.916 450.971Z" fill="black"/>
<path opacity="0.2" d="M180.842 496.764L156.93 525.21L149.862 520.184C149.862 520.184 148.832 521.002 147.012 522.008C142.357 524.578 132.608 528.354 121.957 522.582C129.702 511.669 145.714 495.6 164.759 489.397C164.759 489.397 156.915 501.071 152.048 511.496L156.958 516.422C156.958 516.436 169.217 502.206 180.842 496.764Z" fill="black"/>
<path opacity="0.2" d="M238.922 371.448C238.908 373.947 237.37 402.422 257.713 409.946C278.057 417.471 296.142 404.705 296.142 404.705C296.142 404.705 264.937 435.334 245.962 418.964C226.973 402.608 238.922 371.448 238.922 371.448Z" fill="black"/>
<path d="M179.94 588.865C179.94 588.865 178.84 575.827 179.658 573.041C180.349 570.715 183.636 567.714 183.636 567.714C183.636 567.714 181.915 541.278 183.015 534.457C183.961 528.613 189.279 511.654 189.279 511.654L182.113 443.447L156.86 451.302C156.86 451.302 167.61 475.483 169.275 482.691C170.939 489.9 180.843 496.778 180.843 496.778L156.916 525.224L149.849 520.213C149.849 520.213 128.984 536.827 110.122 511.97C91.2742 487.114 83.1764 466.896 85.8287 443.074C88.4809 419.251 193.54 346.004 214.391 346.765L245.399 353.743C246.076 353.183 247.882 351.719 249.278 351.79C254.921 352.078 255.063 358.755 255.063 358.755L324.542 370.228C324.542 370.228 331.751 366.566 333.007 366.624C336.082 366.782 337.394 369.453 337.394 369.453C337.394 369.453 355.395 358.482 361.193 361.038C380.224 369.395 474.999 416.279 460.934 438.033C440.971 468.921 356.58 484.156 356.58 484.156C356.58 484.156 328.506 527.249 317.46 525.195L335.546 592.556" stroke="#263238" stroke-miterlimit="10" stroke-linecap="round" stroke-linejoin="round"/>
<path d="M387.519 442.729C419.402 464.168 445.106 460.205 465.223 432.62C465.223 432.62 481.968 410.65 480.783 386.928C479.598 363.221 474.04 285.881 401.443 305.654C389.494 308.913 361.617 346.923 359.261 357.362C358.189 362.129 346.988 386.44 336.125 411.583" fill="#4747D9"/>
<path d="M387.519 442.729C419.402 464.168 445.106 460.205 465.223 432.62C465.223 432.62 481.968 410.65 480.783 386.928C479.598 363.221 474.04 285.881 401.443 305.654C389.494 308.913 361.617 346.923 359.261 357.362C358.189 362.129 346.988 386.44 336.125 411.583" stroke="#263238" stroke-miterlimit="10" stroke-linecap="round" stroke-linejoin="round"/>
<path d="M300.77 217.385C300.77 217.385 321.07 213.133 335.192 230.591C353.038 252.672 373.071 312.204 344.531 410.865C344.531 410.865 302.392 372.165 230.458 398.05C230.458 398.05 236.651 374.896 225.774 302.061C220.865 269.115 233.223 193.179 300.77 217.385Z" fill="#232323"/>
<path d="M270.441 397.87C300.504 402.824 332.457 368.95 332.457 368.95C332.457 368.95 316.107 366.896 314.654 359.085C309.97 334.444 328.832 304.002 328.832 304.002C328.832 304.002 255.839 306.055 268.593 322.87C271.273 326.403 273.107 329.777 274.363 332.951C278.792 344.022 275.717 352.365 273.361 354.404C273.192 354.547 272.994 354.677 272.825 354.763C268.409 356.816 250.267 353.758 250.267 353.758C250.267 353.758 243.016 393.347 270.441 397.87Z" fill="white" stroke="#263238" stroke-miterlimit="10" stroke-linecap="round" stroke-linejoin="round"/>
<path d="M322.101 378.327C322.101 378.327 308.233 383.97 287.933 382.29L278.791 386.856" stroke="#232323" stroke-width="0.5" stroke-miterlimit="10" stroke-linecap="round" stroke-linejoin="round"/>
<path d="M269.677 386.109L269 379.992C269 379.992 254.032 375.225 249.391 366.15" stroke="#232323" stroke-width="0.5" stroke-miterlimit="10" stroke-linecap="round" stroke-linejoin="round"/>
<path d="M273.358 354.418C295.719 360.363 306.215 331.184 306.215 331.184C306.215 331.184 288.326 325.757 274.36 332.965C278.776 344.022 275.714 352.379 273.358 354.418Z" fill="#232323"/>
<path d="M330.1 288.666C335.546 257.592 329.494 220.301 283.038 223.388C249.843 225.599 250.111 262.647 252.311 273.704C256.008 292.299 250.717 299.623 256.403 315.246C260.494 326.475 270.002 339.025 281.19 343.735C288.074 346.635 315.936 326.733 317.996 317.629" fill="white"/>
<path d="M330.1 288.666C335.546 257.592 329.494 220.301 283.038 223.388C249.843 225.599 250.111 262.647 252.311 273.704C256.008 292.299 250.717 299.623 256.403 315.246C260.494 326.475 270.002 339.025 281.19 343.735C288.074 346.635 315.936 326.733 317.996 317.629" stroke="#232323" stroke-width="0.5" stroke-miterlimit="10" stroke-linecap="round" stroke-linejoin="round"/>
<path d="M271.724 279.505C271.442 282.994 271.047 291.638 263.781 298.014C259.084 302.135 269.862 306.357 269.862 306.357" stroke="#263238" stroke-miterlimit="10" stroke-linecap="round" stroke-linejoin="round"/>
<path d="M264.007 267.17C264.007 267.17 253.751 262.087 246.824 270.473" stroke="#263238" stroke-miterlimit="10" stroke-linecap="round" stroke-linejoin="round"/>
<path d="M281.203 266.509C281.203 266.509 291.107 262.891 303.126 267.385" stroke="#263238" stroke-miterlimit="10" stroke-linecap="round" stroke-linejoin="round"/>
<path d="M270.37 316.164C283.264 314.571 293.295 307.635 293.295 307.635C293.295 307.635 294.254 320.673 283.532 323.387C275.308 325.469 272.119 315.906 272.119 315.906" stroke="#263238" stroke-miterlimit="10" stroke-linecap="round" stroke-linejoin="round"/>
<path d="M298.42 246.191C298.42 246.191 295.328 305.026 328.971 326.412L344.73 269.849L320.884 229.073L284.773 219.518C231.089 224.681 208.149 269.711 237.957 406.909C237.957 406.909 229.617 243.529 298.42 246.191Z" fill="#232323"/>
<path d="M322.538 286.986C322.101 282.851 332.385 272.311 335.856 279.074C341.781 290.605 337.464 300.656 331.327 304.591C328.576 306.357 325.091 309.66 322.651 306.544" fill="white"/>
<path d="M322.538 286.986C322.101 282.851 332.385 272.311 335.856 279.074C341.781 290.605 337.464 300.656 331.327 304.591C328.576 306.357 325.091 309.66 322.651 306.544" stroke="#263238" stroke-miterlimit="10" stroke-linecap="round" stroke-linejoin="round"/>
<g opacity="0.2">
<path opacity="0.2" d="M238.642 276.504C238.261 279.002 237.993 281.515 237.852 284.042" stroke="white" stroke-miterlimit="10" stroke-linecap="round" stroke-linejoin="round"/>
<path opacity="0.2" d="M295.241 228.529C269.439 227.839 245.456 244.583 239.742 270.875" stroke="white" stroke-miterlimit="10" stroke-linecap="round" stroke-linejoin="round"/>
<path opacity="0.2" d="M290.628 221.019C290.628 221.019 253.412 212.116 239.46 237.23" stroke="white" stroke-miterlimit="10" stroke-linecap="round" stroke-linejoin="round"/>
<path opacity="0.2" d="M320.818 264.801C323.09 268.017 325.742 270.99 328.846 273.416" stroke="white" stroke-miterlimit="10" stroke-linecap="round" stroke-linejoin="round"/>
<path opacity="0.2" d="M306.061 225.93C308.05 237.776 311.887 249.795 317.869 260.163" stroke="white" stroke-miterlimit="10" stroke-linecap="round" stroke-linejoin="round"/>
<path opacity="0.2" d="M343.46 339.886C342.797 342.902 342.021 345.889 341.146 348.847" stroke="white" stroke-miterlimit="10" stroke-linecap="round" stroke-linejoin="round"/>
<path opacity="0.2" d="M341.303 289.829C347.341 303.471 346.932 320.444 344.449 334.803" stroke="white" stroke-miterlimit="10" stroke-linecap="round" stroke-linejoin="round"/>
<path opacity="0.2" d="M336.873 313.594C336.873 313.594 338.721 328.815 326.377 341.667" stroke="white" stroke-miterlimit="10" stroke-linecap="round" stroke-linejoin="round"/>
<path opacity="0.2" d="M317.926 227.064C324.26 235.78 328.958 245.128 336.294 253.083C344.025 261.469 351.742 271.061 353.195 282.865" stroke="white" stroke-miterlimit="10" stroke-linecap="round" stroke-linejoin="round"/>
<path opacity="0.2" d="M310.787 221.263C312.607 222.469 314.258 223.905 315.753 225.499" stroke="white" stroke-miterlimit="10" stroke-linecap="round" stroke-linejoin="round"/>
</g>
<path d="M438.108 423.458C437.374 423.631 436.627 423.76 435.865 423.861C415.889 426.761 393.486 409.918 385.924 389.656C379.957 373.674 385.176 355.538 388.026 347.77C388.929 345.343 389.578 343.921 389.578 343.921C401.626 326.403 471.67 360.665 472.474 379.547C473.292 398.43 458.634 418.878 438.108 423.458Z" fill="#232323" stroke="#263238" stroke-miterlimit="10" stroke-linecap="round" stroke-linejoin="round"/>
<path d="M460.017 382.118C460.017 382.118 456.038 412.115 435.865 423.861C415.889 426.761 393.486 409.918 385.924 389.656C379.957 373.674 385.176 355.538 388.026 347.77C388.026 347.756 388.04 347.756 388.04 347.756C411.642 334.057 460.017 382.118 460.017 382.118Z" fill="white"/>
<path d="M460.017 382.118C460.017 382.118 456.038 412.115 435.865 423.861C415.889 426.761 393.486 409.918 385.924 389.656C379.957 373.674 385.176 355.538 388.026 347.77C388.026 347.756 388.04 347.756 388.04 347.756C411.642 334.057 460.017 382.118 460.017 382.118Z" stroke="#263238" stroke-miterlimit="10" stroke-linecap="round" stroke-linejoin="round"/>
<path d="M377.431 397.913C377.431 397.913 400.172 431.141 426.736 433.912C453.301 436.684 470.272 413.91 471.387 396.736" stroke="#263238" stroke-miterlimit="10" stroke-linecap="round" stroke-linejoin="round"/>
<path d="M364.636 247.928C366.639 242.228 380.986 244.137 385.529 261.9C390.072 279.663 408.031 322.784 408.031 322.784C408.031 322.784 479.316 216.007 492.097 211.9C504.879 207.779 499.814 226.289 482.744 251.963C482.744 251.963 498.742 249.091 502.932 251.978C507.136 254.85 505.09 272.095 507.319 278.141C511.072 288.264 502.734 290.404 502.734 290.404C502.734 290.404 509.294 290.346 513.865 294.712C518.45 299.077 516.151 317.141 517.448 322.253C518.76 327.365 510.014 331.673 510.014 331.673C510.014 331.673 531.034 343.347 526.28 346.262C518.281 351.187 513.71 346.147 513.71 346.147C513.71 346.147 481.418 387.431 457.068 396.621C432.719 405.811 385.289 369.28 380.196 349.378C375.104 329.476 381.184 330.711 377.318 297.583C373.481 264.47 364.636 247.928 364.636 247.928Z" fill="white" stroke="#263238" stroke-miterlimit="10" stroke-linecap="round" stroke-linejoin="round"/>
<path d="M468.636 182.363L374.722 207.277C371.393 208.167 369.39 211.628 370.25 215.031L414.632 388.393C415.507 391.782 418.907 393.821 422.251 392.945L516.164 368.031C519.494 367.141 521.497 363.68 520.636 360.277L476.254 186.915C475.379 183.512 471.965 181.473 468.636 182.363Z" fill="white" stroke="#232323" stroke-width="0.5" stroke-miterlimit="10" stroke-linecap="round" stroke-linejoin="round"/>
<path d="M414.83 202.251C415.041 203.084 414.547 203.931 413.743 204.146C412.925 204.362 412.093 203.859 411.881 203.041C411.669 202.208 412.163 201.361 412.967 201.145C413.786 200.916 414.618 201.418 414.83 202.251Z" fill="#92E3A9" stroke="#263238" stroke-miterlimit="10" stroke-linecap="round" stroke-linejoin="round"/>
<path d="M434.17 197.11C434.297 197.627 434.001 198.158 433.479 198.302C432.971 198.431 432.449 198.13 432.308 197.598C432.181 197.081 432.477 196.55 432.999 196.406C433.521 196.277 434.043 196.593 434.17 197.11Z" fill="#92E3A9" stroke="#263238" stroke-miterlimit="10" stroke-linecap="round" stroke-linejoin="round"/>
<path d="M429.135 199.02L417.863 202.007C417.623 202.064 417.383 201.921 417.313 201.677L417.27 201.49C417.214 201.246 417.355 201.002 417.595 200.93L428.867 197.943C429.106 197.886 429.346 198.029 429.417 198.273L429.459 198.46C429.515 198.704 429.374 198.963 429.135 199.02Z" fill="#92E3A9" stroke="#263238" stroke-miterlimit="10" stroke-linecap="round" stroke-linejoin="round"/>
<path d="M473.418 188.653L517.447 360.593C517.955 362.603 516.784 364.657 514.809 365.174L422.095 389.771C420.12 390.288 418.102 389.096 417.594 387.086L373.565 215.146C373.057 213.136 374.228 211.082 376.203 210.565L395.234 205.511C396.489 205.18 397.816 205.669 398.549 206.746L399.918 208.742C400.665 209.819 401.991 210.321 403.233 209.976L445.019 198.891C446.275 198.561 447.192 197.469 447.319 196.163L447.559 193.736C447.686 192.429 448.603 191.338 449.858 191.008L468.889 185.953C470.893 185.436 472.91 186.642 473.418 188.653Z" fill="white" stroke="#232323" stroke-width="0.5" stroke-miterlimit="10" stroke-linecap="round" stroke-linejoin="round"/>
<path d="M479.681 286.541C489.025 264.639 479.157 239.174 457.639 229.663C436.121 220.152 411.103 230.196 401.759 252.098C392.415 274 402.283 299.465 423.801 308.976C445.318 318.487 470.337 308.443 479.681 286.541Z" fill="white" stroke="#232323" stroke-width="0.5" stroke-miterlimit="10" stroke-linecap="round" stroke-linejoin="round"/>
<path d="M489.193 342.338L436.346 356.353C430.012 358.033 423.537 354.171 421.886 347.723C420.235 341.276 424.03 334.685 430.365 333.005L483.211 318.99C489.546 317.31 496.021 321.172 497.671 327.62C499.322 334.067 495.527 340.658 489.193 342.338Z" fill="#4747D9"/>
<path d="M356.581 484.141C356.581 484.141 340.54 446.161 348.723 400.096" stroke="#263238" stroke-miterlimit="10" stroke-linecap="round" stroke-linejoin="round"/>
<path d="M317.459 525.181C317.459 525.181 285.04 535.276 281.753 542.857C278.466 550.454 296.298 544.064 296.298 544.064" stroke="#263238" stroke-miterlimit="10" stroke-linecap="round" stroke-linejoin="round"/>
<path d="M337.394 369.438C337.394 369.438 307.543 399.55 287.566 407.591" stroke="#263238" stroke-miterlimit="10" stroke-linecap="round" stroke-linejoin="round"/>
<path d="M239.573 361.339C239.573 361.339 234.142 401.991 254.442 409.674" stroke="#263238" stroke-miterlimit="10" stroke-linecap="round" stroke-linejoin="round"/>
<path d="M182.112 443.447C182.112 443.447 181.943 390.144 192.355 373.66" stroke="#263238" stroke-miterlimit="10" stroke-linecap="round" stroke-linejoin="round"/>
<path d="M178.232 389.139C178.232 389.139 175.312 422.238 181.858 433.036" stroke="#263238" stroke-miterlimit="10" stroke-linecap="round" stroke-linejoin="round"/>
<path d="M156.86 451.301C156.86 451.301 134.161 443.346 129.449 453.211C124.737 463.076 142.992 454.331 142.992 454.331" stroke="#263238" stroke-miterlimit="10" stroke-linecap="round" stroke-linejoin="round"/>
<path d="M170.516 485.865C170.516 485.865 148.226 498.645 147.069 505.968" stroke="#263238" stroke-miterlimit="10" stroke-linecap="round" stroke-linejoin="round"/>
<path d="M206.928 450.497C206.928 450.497 249.603 516.149 273.163 510.118" stroke="#263238" stroke-miterlimit="10" stroke-linecap="round" stroke-linejoin="round"/>
<path d="M236.088 542.585C236.088 542.585 202.625 567.556 197.758 565.445" stroke="#263238" stroke-miterlimit="10" stroke-linecap="round" stroke-linejoin="round"/>
<path opacity="0.2" d="M470.483 436.037C472.741 434.156 474.236 432.907 474.716 432.505C474.208 432.964 472.741 434.257 470.483 436.037Z" fill="black"/>
<path d="M435.827 346.45L433.982 339.554L435.114 339.253L436.702 345.187L439.633 344.409L439.89 345.371L435.827 346.45ZM441.629 339.211C442.094 339.087 442.519 339.077 442.904 339.181C443.289 339.284 443.618 339.488 443.892 339.792C444.165 340.097 444.368 340.494 444.499 340.985L444.658 341.579L441.171 342.505C441.319 343.008 441.558 343.362 441.889 343.567C442.224 343.772 442.625 343.811 443.094 343.687C443.428 343.598 443.718 343.488 443.966 343.355C444.215 343.218 444.465 343.049 444.714 342.848L444.956 343.748C444.727 343.94 444.485 344.101 444.23 344.229C443.975 344.358 443.658 344.472 443.28 344.572C442.768 344.708 442.29 344.729 441.847 344.635C441.406 344.536 441.022 344.318 440.696 343.98C440.373 343.642 440.133 343.178 439.975 342.59C439.819 342.005 439.785 341.482 439.874 341.021C439.962 340.559 440.158 340.174 440.459 339.865C440.76 339.556 441.15 339.338 441.629 339.211ZM441.852 340.046C441.503 340.139 441.25 340.327 441.093 340.611C440.94 340.894 440.903 341.26 440.982 341.707L443.361 341.075C443.288 340.815 443.182 340.596 443.043 340.417C442.907 340.237 442.739 340.113 442.539 340.045C442.342 339.976 442.113 339.977 441.852 340.046ZM448.27 342.288C448.414 342.249 448.554 342.199 448.689 342.136C448.823 342.07 448.943 342.003 449.049 341.934L449.274 342.774C449.166 342.86 449.019 342.947 448.834 343.037C448.649 343.126 448.451 343.199 448.24 343.255C447.945 343.334 447.666 343.356 447.404 343.321C447.141 343.283 446.908 343.161 446.705 342.956C446.501 342.75 446.343 342.434 446.228 342.006L445.477 339.2L444.764 339.389L444.632 338.894L445.292 338.299L445.356 337.085L446.054 336.899L446.365 338.06L447.861 337.662L448.087 338.507L446.591 338.904L447.338 341.696C447.409 341.96 447.527 342.139 447.694 342.233C447.861 342.327 448.053 342.345 448.27 342.288ZM449.404 335.459L449.503 335.544C449.508 335.789 449.499 336.054 449.478 336.339C449.46 336.623 449.434 336.91 449.4 337.198C449.366 337.487 449.326 337.762 449.282 338.023L448.479 338.236C448.474 338.038 448.467 337.831 448.46 337.614C448.451 337.394 448.441 337.175 448.43 336.956C448.418 336.733 448.403 336.52 448.385 336.316C448.367 336.108 448.348 335.918 448.328 335.745L449.404 335.459ZM455.344 339.672C455.435 340.014 455.429 340.326 455.326 340.606C455.222 340.886 455.026 341.13 454.738 341.338C454.452 341.542 454.078 341.705 453.616 341.828C453.251 341.925 452.929 341.982 452.65 341.998C452.376 342.017 452.108 342.004 451.846 341.959L451.59 341.002C451.87 341.052 452.175 341.079 452.506 341.082C452.84 341.084 453.146 341.048 453.423 340.975C453.788 340.878 454.035 340.752 454.165 340.596C454.295 340.437 454.334 340.261 454.282 340.07C454.252 339.956 454.192 339.864 454.103 339.794C454.015 339.719 453.871 339.658 453.669 339.611C453.47 339.559 453.184 339.511 452.812 339.465C452.446 339.421 452.132 339.362 451.87 339.29C451.608 339.219 451.394 339.105 451.228 338.951C451.061 338.793 450.939 338.568 450.861 338.275C450.737 337.813 450.826 337.414 451.127 337.078C451.43 336.738 451.884 336.488 452.488 336.328C452.808 336.243 453.119 336.195 453.42 336.186C453.723 336.173 454.028 336.191 454.335 336.241L454.209 337.169C453.945 337.128 453.685 337.106 453.428 337.104C453.174 337.097 452.924 337.126 452.678 337.191C452.392 337.268 452.185 337.37 452.058 337.498C451.933 337.625 451.893 337.77 451.937 337.934C451.97 338.057 452.034 338.151 452.129 338.216C452.224 338.282 452.371 338.334 452.57 338.372C452.772 338.409 453.048 338.449 453.4 338.49C453.743 338.527 454.046 338.581 454.308 338.653C454.572 338.721 454.791 338.833 454.964 338.989C455.137 339.145 455.264 339.373 455.344 339.672ZM461.564 342.102C460.856 342.29 460.279 342.307 459.834 342.152C459.388 341.998 459.104 341.691 458.981 341.232C458.895 340.911 458.923 340.612 459.065 340.336C459.207 340.062 459.454 339.833 459.806 339.649C459.647 339.623 459.499 339.559 459.359 339.454C459.223 339.346 459.132 339.21 459.088 339.046C459.036 338.851 459.047 338.67 459.12 338.502C459.193 338.335 459.322 338.157 459.508 337.97C459.203 337.926 458.933 337.796 458.696 337.579C458.462 337.358 458.297 337.07 458.202 336.715C458.101 336.338 458.095 335.996 458.185 335.689C458.274 335.379 458.454 335.114 458.725 334.894C458.996 334.67 459.35 334.501 459.787 334.384C459.881 334.359 459.985 334.339 460.099 334.322C460.215 334.301 460.322 334.286 460.42 334.277C460.521 334.264 460.599 334.258 460.654 334.26L462.461 333.781L462.626 334.398L461.783 334.799C461.9 334.896 462.005 335.015 462.096 335.156C462.187 335.293 462.256 335.452 462.304 335.631C462.449 336.172 462.376 336.647 462.085 337.058C461.796 337.465 461.324 337.755 460.67 337.929C460.511 337.964 460.355 337.992 460.202 338.013C460.107 338.112 460.041 338.212 460.004 338.313C459.966 338.41 459.961 338.511 459.989 338.615C460.012 338.7 460.06 338.761 460.134 338.799C460.208 338.833 460.306 338.847 460.429 338.842C460.555 338.835 460.703 338.809 460.873 338.764L461.775 338.525C462.347 338.373 462.817 338.378 463.184 338.54C463.55 338.702 463.797 339.017 463.922 339.485C464.081 340.08 463.958 340.602 463.553 341.053C463.149 341.508 462.486 341.857 461.564 342.102ZM461.398 341.312C461.785 341.21 462.101 341.085 462.345 340.94C462.589 340.794 462.76 340.633 462.857 340.455C462.955 340.281 462.979 340.098 462.928 339.906C462.882 339.736 462.805 339.617 462.695 339.548C462.586 339.48 462.442 339.451 462.263 339.461C462.083 339.472 461.868 339.51 461.616 339.577L460.795 339.795C460.591 339.85 460.418 339.929 460.278 340.034C460.138 340.141 460.041 340.268 459.985 340.414C459.933 340.56 459.93 340.719 459.977 340.892C460.041 341.131 460.195 341.287 460.44 341.36C460.689 341.432 461.008 341.416 461.398 341.312ZM460.527 337.189C460.851 337.103 461.069 336.951 461.179 336.733C461.288 336.512 461.299 336.239 461.213 335.916C461.118 335.563 460.966 335.321 460.755 335.188C460.548 335.055 460.285 335.03 459.967 335.115C459.656 335.197 459.442 335.35 459.327 335.573C459.214 335.795 459.205 336.082 459.299 336.434C459.384 336.751 459.531 336.978 459.739 337.115C459.95 337.248 460.213 337.272 460.527 337.189ZM465.47 332.88C465.936 332.757 466.361 332.747 466.746 332.85C467.131 332.953 467.46 333.157 467.734 333.462C468.007 333.766 468.21 334.164 468.341 334.654L468.5 335.249L465.012 336.175C465.16 336.678 465.4 337.032 465.731 337.237C466.066 337.441 466.467 337.481 466.936 337.356C467.269 337.268 467.56 337.157 467.807 337.024C468.057 336.887 468.307 336.718 468.556 336.517L468.797 337.418C468.569 337.61 468.327 337.77 468.072 337.898C467.816 338.027 467.5 338.141 467.122 338.241C466.609 338.378 466.131 338.398 465.688 338.304C465.248 338.205 464.864 337.987 464.538 337.65C464.215 337.311 463.974 336.848 463.817 336.26C463.66 335.675 463.627 335.152 463.715 334.69C463.804 334.229 463.999 333.844 464.301 333.535C464.602 333.225 464.992 333.007 465.47 332.88ZM465.694 333.715C465.345 333.808 465.092 333.996 464.935 334.28C464.782 334.564 464.745 334.929 464.824 335.376L467.202 334.744C467.129 334.484 467.024 334.265 466.885 334.086C466.749 333.907 466.581 333.783 466.381 333.715C466.184 333.646 465.955 333.646 465.694 333.715ZM472.111 335.957C472.256 335.918 472.396 335.868 472.531 335.805C472.665 335.739 472.785 335.672 472.891 335.603L473.116 336.443C473.008 336.529 472.861 336.617 472.676 336.706C472.491 336.796 472.293 336.869 472.082 336.924C471.787 337.003 471.508 337.025 471.246 336.99C470.983 336.952 470.75 336.83 470.546 336.625C470.343 336.42 470.184 336.103 470.07 335.675L469.319 332.869L468.606 333.058L468.474 332.563L469.133 331.968L469.198 330.754L469.896 330.569L470.207 331.729L471.703 331.332L471.929 332.176L470.433 332.573L471.18 335.366C471.251 335.63 471.369 335.809 471.536 335.903C471.702 335.996 471.894 336.014 472.111 335.957ZM476.427 330.077L477.824 335.299L476.715 335.593L475.318 330.372L476.427 330.077ZM475.344 328.223C475.514 328.178 475.672 328.184 475.82 328.243C475.97 328.301 476.075 328.441 476.135 328.665C476.193 328.885 476.173 329.059 476.072 329.186C475.974 329.31 475.84 329.395 475.67 329.44C475.494 329.486 475.332 329.481 475.185 329.422C475.04 329.359 474.938 329.218 474.879 328.998C474.819 328.775 474.837 328.601 474.932 328.479C475.031 328.355 475.168 328.27 475.344 328.223ZM481.144 333.558C481.289 333.52 481.429 333.469 481.563 333.407C481.697 333.341 481.818 333.273 481.924 333.205L482.149 334.044C482.04 334.13 481.894 334.218 481.709 334.308C481.524 334.397 481.326 334.47 481.115 334.526C480.819 334.605 480.54 334.626 480.278 334.592C480.015 334.554 479.782 334.432 479.579 334.227C479.376 334.021 479.217 333.705 479.103 333.277L478.352 330.471L477.639 330.66L477.506 330.164L478.166 329.57L478.23 328.356L478.929 328.17L479.239 329.33L480.735 328.933L480.961 329.778L479.465 330.175L480.213 332.967C480.283 333.231 480.402 333.41 480.569 333.504C480.735 333.598 480.927 333.616 481.144 333.558Z" fill="white"/>
<path opacity="0.7" d="M434.19 255.654C446.737 257.592 456.131 251.069 459.124 249.134C456.423 253.817 452.04 267.331 457.2 271.365L448.451 265.331C441.786 271.953 428.231 283.605 430.645 293.555C429.465 289.851 425.901 281.294 412.893 278.303C426.573 278.376 435.908 268.453 442.984 261.165L434.19 255.654Z" fill="#32E3B5"/>
<path d="M405.99 279.686L404.268 273.444L406.02 272.965L406.665 275.302L408.914 274.687L408.269 272.351L410.021 271.872L411.743 278.114L409.991 278.593L409.337 276.221L407.088 276.836L407.742 279.208L405.99 279.686Z" fill="#4747D9"/>
<path d="M412.897 277.799L411.175 271.557L412.937 271.076L414.659 277.318L412.897 277.799Z" fill="#4747D9"/>
<path d="M419.075 276.246C418.081 276.517 417.176 276.438 416.358 276.01C415.539 275.575 414.999 274.885 414.738 273.94C414.486 273.024 414.596 272.166 415.068 271.366C415.546 270.564 416.273 270.03 417.248 269.763C418.248 269.49 419.186 269.56 420.064 269.972L419.372 271.475C418.788 271.213 418.225 271.156 417.683 271.304C417.225 271.429 416.886 271.7 416.664 272.119C416.449 272.536 416.409 272.988 416.543 273.475C416.683 273.981 416.957 274.353 417.366 274.593C417.78 274.825 418.237 274.873 418.737 274.737C419.146 274.625 419.459 274.446 419.677 274.202L419.468 273.444L418.221 273.784L417.872 272.518L420.78 271.723L421.555 274.532C420.944 275.39 420.117 275.961 419.075 276.246Z" fill="#4747D9"/>
<path d="M422.758 275.105L421.036 268.863L422.788 268.384L423.433 270.72L425.682 270.106L425.037 267.769L426.79 267.291L428.512 273.533L426.759 274.012L426.105 271.64L423.856 272.254L424.51 274.626L422.758 275.105Z" fill="#4747D9"/>
<path d="M432.134 272.543L430.413 266.301L435.471 264.919L435.889 266.435L432.583 267.338L432.876 268.399L435.866 267.582L436.262 269.018L433.272 269.835L433.887 272.064L432.134 272.543Z" fill="#4747D9"/>
<path d="M437.991 270.943L436.27 264.701L438.022 264.222L439.326 268.948L442.388 268.111L442.806 269.627L437.991 270.943Z" fill="#4747D9"/>
<path d="M446.258 268.809C445.331 269.062 444.546 269.021 443.903 268.685C443.26 268.35 442.807 267.706 442.545 266.755L441.578 263.25L443.357 262.764L444.314 266.233C444.435 266.673 444.63 266.978 444.897 267.148C445.168 267.31 445.484 267.342 445.846 267.243C446.207 267.145 446.461 266.96 446.606 266.69C446.758 266.419 446.775 266.069 446.657 265.641L445.688 262.127L447.467 261.641L448.421 265.101C448.69 266.076 448.629 266.876 448.238 267.501C447.852 268.118 447.192 268.554 446.258 268.809Z" fill="#4747D9"/>
<path d="M450.226 267.6L448.504 261.358L453.589 259.968L453.995 261.44L450.644 262.355L450.905 263.301L453.94 262.471L454.316 263.836L451.281 264.665L451.554 265.655L454.95 264.727L455.356 266.198L450.226 267.6Z" fill="#4747D9"/>
<path d="M456.251 265.954L454.529 259.712L456.163 259.265L459.675 261.854L458.765 258.554L460.499 258.08L462.221 264.323L460.685 264.742L457.04 262.056L457.985 265.48L456.251 265.954Z" fill="#4747D9"/>
<path d="M466.421 263.31C465.506 263.56 464.647 263.465 463.846 263.025C463.049 262.578 462.522 261.888 462.265 260.954C462.012 260.039 462.116 259.183 462.576 258.386C463.042 257.587 463.751 257.058 464.702 256.798C465.828 256.49 466.835 256.688 467.722 257.392L466.71 258.723C466.186 258.349 465.656 258.235 465.12 258.381C464.68 258.501 464.363 258.76 464.169 259.159C463.974 259.557 463.942 259.991 464.071 260.461C464.202 260.936 464.454 261.296 464.825 261.54C465.195 261.778 465.6 261.836 466.04 261.716C466.347 261.632 466.591 261.498 466.774 261.314C466.954 261.124 467.116 260.876 467.258 260.568L468.832 261.136C468.624 261.672 468.335 262.125 467.964 262.495C467.592 262.859 467.077 263.13 466.421 263.31Z" fill="#4747D9"/>
<path d="M471.589 261.763L470.944 259.427L467.464 256.178L469.46 255.632L471.388 257.551L472.071 254.919L474.031 254.383L472.698 258.919L473.35 261.282L471.589 261.763Z" fill="#4747D9"/>
<path d="M407.519 285.862L406.676 282.805L408.98 282.176L409.115 282.665L407.355 283.146L407.585 283.98L409.146 283.553L409.281 284.042L407.72 284.469L408.063 285.713L407.519 285.862Z" fill="#4747D9"/>
<path d="M410.452 285.06L409.609 282.004L410.153 281.855L410.996 284.912L410.452 285.06Z" fill="#4747D9"/>
<path d="M411.824 284.685L410.981 281.629L411.485 281.491L413.727 283.151L413.144 281.038L413.679 280.892L414.522 283.948L414.066 284.073L411.76 282.365L412.359 284.539L411.824 284.685Z" fill="#4747D9"/>
<path d="M415.318 283.731L414.475 280.675L415.629 280.359C416.113 280.227 416.548 280.265 416.935 280.472C417.321 280.676 417.575 280.998 417.696 281.438C417.816 281.874 417.762 282.281 417.533 282.656C417.306 283.031 416.953 283.284 416.472 283.415L415.318 283.731ZM415.727 283.093L416.337 282.926C416.659 282.839 416.892 282.672 417.036 282.426C417.18 282.177 417.21 281.899 417.125 281.594C417.042 281.291 416.874 281.069 416.623 280.928C416.372 280.787 416.085 280.76 415.764 280.848L415.154 281.015L415.727 283.093Z" fill="#4747D9"/>
<path d="M421.014 282.174L420.682 280.969L418.942 279.454L419.583 279.279L420.823 280.396L421.325 278.803L421.949 278.633L421.226 280.807L421.562 282.025L421.014 282.174Z" fill="#4747D9"/>
<path d="M425.532 280.499C425.31 280.891 424.965 281.151 424.496 281.279C424.028 281.407 423.599 281.36 423.211 281.137C422.823 280.915 422.568 280.582 422.446 280.14C422.326 279.703 422.376 279.289 422.598 278.896C422.819 278.504 423.165 278.244 423.633 278.116C424.102 277.988 424.53 278.035 424.918 278.258C425.306 278.48 425.561 278.813 425.683 279.255C425.804 279.692 425.753 280.106 425.532 280.499ZM423.526 280.676C423.785 280.831 424.066 280.866 424.369 280.784C424.673 280.701 424.893 280.528 425.03 280.265C425.17 280.001 425.197 279.717 425.113 279.411C425.029 279.109 424.859 278.88 424.6 278.725C424.344 278.567 424.064 278.529 423.761 278.612C423.457 278.695 423.235 278.868 423.096 279.131C422.959 279.394 422.933 279.678 423.017 279.984C423.1 280.287 423.27 280.517 423.526 280.676Z" fill="#4747D9"/>
<path d="M428.045 280.305C427.635 280.417 427.28 280.39 426.981 280.225C426.685 280.059 426.476 279.757 426.356 279.321L425.87 277.561L426.414 277.412L426.894 279.15C426.971 279.43 427.099 279.626 427.28 279.739C427.46 279.853 427.673 279.876 427.917 279.809C428.162 279.743 428.332 279.618 428.428 279.435C428.526 279.252 428.537 279.022 428.461 278.745L427.975 276.986L428.519 276.837L428.997 278.571C429.12 279.016 429.096 279.389 428.925 279.689C428.754 279.986 428.46 280.192 428.045 280.305Z" fill="#4747D9"/>
<path d="M430.109 279.689L429.266 276.633L430.646 276.256C431.005 276.158 431.311 276.17 431.564 276.292C431.815 276.411 431.982 276.619 432.064 276.916C432.131 277.157 432.119 277.375 432.03 277.568C431.94 277.759 431.79 277.917 431.581 278.043L432.736 278.972L432.094 279.147L431.031 278.292L430.359 278.476L430.653 279.541L430.109 279.689ZM430.228 278L431.024 277.782C431.218 277.729 431.36 277.64 431.45 277.516C431.539 277.391 431.561 277.249 431.517 277.089C431.472 276.926 431.382 276.816 431.246 276.759C431.109 276.702 430.94 276.702 430.736 276.757L429.945 276.974L430.228 278Z" fill="#4747D9"/>
<path d="M435.658 278.197L433.522 275.47L434.123 275.306L435.704 277.4L435.985 274.797L436.573 274.637L436.136 278.066L435.658 278.197Z" fill="#4747D9"/>
<path d="M440.284 276.468C440.062 276.86 439.717 277.121 439.248 277.249C438.78 277.377 438.351 277.329 437.963 277.107C437.575 276.884 437.32 276.552 437.198 276.109C437.078 275.673 437.129 275.258 437.35 274.866C437.572 274.474 437.917 274.213 438.385 274.085C438.854 273.957 439.283 274.005 439.67 274.227C440.058 274.45 440.313 274.782 440.435 275.225C440.556 275.661 440.505 276.076 440.284 276.468ZM438.278 276.645C438.537 276.8 438.818 276.836 439.121 276.753C439.425 276.67 439.645 276.497 439.782 276.234C439.922 275.971 439.949 275.686 439.865 275.381C439.781 275.078 439.611 274.849 439.352 274.694C439.096 274.536 438.816 274.498 438.513 274.581C438.209 274.664 437.987 274.837 437.848 275.101C437.711 275.364 437.685 275.648 437.769 275.953C437.852 276.256 438.022 276.487 438.278 276.645Z" fill="#4747D9"/>
<path d="M441.545 276.565L440.702 273.509L441.246 273.36L442.089 276.416L441.545 276.565Z" fill="#4747D9"/>
<path d="M444.369 275.85C443.921 275.972 443.505 275.923 443.121 275.702C442.736 275.479 442.482 275.145 442.359 274.699C442.237 274.257 442.284 273.842 442.501 273.454C442.717 273.066 443.057 272.809 443.519 272.683C443.788 272.609 444.026 272.588 444.234 272.619C444.445 272.649 444.655 272.718 444.862 272.827L444.623 273.32C444.276 273.143 443.952 273.095 443.651 273.177C443.356 273.258 443.141 273.429 443.004 273.692C442.87 273.954 442.845 274.238 442.93 274.543C443.013 274.846 443.181 275.077 443.435 275.236C443.687 275.393 443.959 275.431 444.251 275.351C444.428 275.303 444.575 275.228 444.693 275.127C444.81 275.023 444.923 274.885 445.03 274.711L445.476 274.965C445.352 275.193 445.205 275.379 445.035 275.522C444.865 275.666 444.643 275.775 444.369 275.85Z" fill="#4747D9"/>
<path d="M446.182 275.298L445.339 272.242L447.635 271.615L447.767 272.095L446.016 272.573L446.235 273.368L447.787 272.944L447.92 273.424L446.367 273.848L446.594 274.669L448.367 274.184L448.5 274.665L446.182 275.298Z" fill="#4747D9"/>
<path d="M450.502 274.118L449.659 271.062L450.203 270.913L451.046 273.969L450.502 274.118Z" fill="#4747D9"/>
<path d="M451.874 273.743L451.031 270.687L451.535 270.549L453.777 272.209L453.194 270.096L453.729 269.95L454.572 273.006L454.116 273.13L451.81 271.422L452.409 273.597L451.874 273.743Z" fill="#4747D9"/>
<path d="M456.694 272.426L455.851 269.37L458.146 268.743L458.278 269.223L456.527 269.701L456.746 270.496L458.298 270.072L458.431 270.552L456.879 270.976L457.105 271.797L458.878 271.313L459.011 271.793L456.694 272.426Z" fill="#4747D9"/>
<path d="M459.656 271.617L458.813 268.56L459.317 268.423L461.559 270.083L460.976 267.97L461.511 267.823L462.354 270.879L461.898 271.004L459.592 269.296L460.191 271.47L459.656 271.617Z" fill="#4747D9"/>
<path d="M464.632 270.313C464.155 270.444 463.726 270.401 463.347 270.186C462.969 269.966 462.717 269.628 462.591 269.171C462.471 268.735 462.518 268.321 462.734 267.93C462.953 267.539 463.292 267.28 463.752 267.155C464.011 267.084 464.242 267.058 464.444 267.078C464.645 267.095 464.849 267.151 465.056 267.244L464.823 267.745C464.663 267.67 464.509 267.624 464.362 267.608C464.217 267.588 464.051 267.603 463.866 267.654C463.583 267.731 463.373 267.903 463.237 268.169C463.104 268.433 463.079 268.716 463.162 269.015C463.249 269.333 463.419 269.568 463.67 269.722C463.921 269.872 464.203 269.905 464.515 269.819C464.804 269.74 465.032 269.595 465.199 269.384L465.041 268.812L464.249 269.028L464.121 268.561L465.438 268.201L465.792 269.485C465.506 269.904 465.119 270.18 464.632 270.313Z" fill="#4747D9"/>
<path d="M466.618 269.714L465.775 266.658L466.319 266.51L467.027 269.077L468.654 268.632L468.789 269.121L466.618 269.714Z" fill="#4747D9"/>
<path d="M469.387 268.958L468.544 265.902L469.087 265.753L469.93 268.809L469.387 268.958Z" fill="#4747D9"/>
<path d="M471.855 268.331C471.362 268.465 470.887 268.42 470.428 268.194L470.65 267.721C471.032 267.901 471.395 267.945 471.737 267.851C471.905 267.805 472.028 267.734 472.106 267.638C472.186 267.537 472.209 267.428 472.177 267.308C472.145 267.195 472.073 267.117 471.96 267.076C471.847 267.032 471.643 267.016 471.348 267.028C470.965 267.042 470.673 267.007 470.473 266.924C470.274 266.837 470.138 266.66 470.064 266.392C469.992 266.13 470.032 265.891 470.185 265.674C470.337 265.454 470.567 265.302 470.877 265.217C471.301 265.101 471.711 265.127 472.106 265.295L471.926 265.78C471.582 265.649 471.274 265.621 470.999 265.696C470.843 265.738 470.729 265.807 470.657 265.902C470.588 265.996 470.568 266.097 470.598 266.204C470.63 266.324 470.705 266.404 470.821 266.444C470.938 266.481 471.153 266.494 471.464 266.484C471.829 266.472 472.109 266.513 472.306 266.606C472.506 266.699 472.64 266.869 472.708 267.116C472.786 267.398 472.746 267.649 472.588 267.867C472.429 268.086 472.185 268.24 471.855 268.331Z" fill="#4747D9"/>
<path d="M473.588 267.81L472.745 264.754L473.289 264.605L473.639 265.876L475.116 265.472L474.766 264.202L475.31 264.053L476.153 267.109L475.609 267.258L475.253 265.97L473.776 266.374L474.132 267.661L473.588 267.81Z" fill="#4747D9"/>
<path d="M290.531 280.024C290.855 283.025 292.83 285.265 294.961 285.021C297.091 284.791 298.558 282.163 298.234 279.162C297.909 276.161 295.934 273.921 293.804 274.165C291.688 274.395 290.22 277.023 290.531 280.024Z" fill="#263238"/>
<path d="M259.439 281.388C259.763 284.389 261.738 286.629 263.869 286.385C265.999 286.155 267.466 283.527 267.142 280.526C266.817 277.525 264.842 275.285 262.712 275.529C260.596 275.773 259.129 278.387 259.439 281.388Z" fill="#263238"/>
</g>
<defs>
<clipPath id="clip0_44_340">
<rect width="573" height="636" fill="white"/>
</clipPath>
</defs>
</svg>
