<svg width="126" height="120" viewBox="0 0 126 120" fill="none" xmlns="http://www.w3.org/2000/svg">
<path d="M79.5465 61.6436C79.5465 58.6354 77.1078 56.1968 74.0996 56.1968C71.0914 56.1968 68.6527 58.6354 68.6527 61.6436C68.6527 58.6354 66.2141 56.1968 63.2058 56.1968C60.1976 56.1968 57.759 58.6354 57.759 61.6436V33.7865C57.759 30.7375 55.2873 28.2661 52.2385 28.2661C49.1895 28.2661 46.718 30.7378 46.718 33.7865V70.3258C46.718 71.354 45.3655 71.7339 44.832 70.8548C41.1092 64.7193 36.8185 59.8746 32.1685 58.1315C29.2063 57.0211 26.2372 59.7276 27.0999 62.7715C29.3954 70.8712 33.1831 81.3391 37.25 91.526C37.5966 92.3946 38.1144 93.1875 38.7849 93.8393C42.8902 97.8293 45.5265 102.305 46.2029 107.428L48.0971 108.635H83.986L85.9508 107.428C86.1966 103.288 87.4194 99.2514 89.6021 95.3151C90.1494 94.3284 90.4407 93.22 90.4407 92.0918V63.8521C90.4407 60.8439 88.002 58.4053 84.9938 58.4053C81.9856 58.4053 79.5469 60.8439 79.5469 63.8521V61.6436H79.5465Z" fill="#FDC4A6"/>
<path d="M54.4149 100.802C52.2706 100.802 50.2556 99.7671 49.0179 98.0161C47.9925 96.5655 46.7848 95.175 45.4107 93.8395C44.7394 93.1882 44.2205 92.3953 43.8736 91.5253C39.8084 81.3389 36.019 70.8719 33.7247 62.7722C33.3471 61.4383 33.7027 60.1708 34.4712 59.2589C33.7137 58.8018 32.9454 58.4219 32.168 58.1306C29.2069 57.022 26.2367 59.7272 27.1001 62.7722C29.3944 70.8719 33.1838 81.3389 37.249 91.5253C37.5957 92.3953 38.1146 93.1879 38.786 93.8395C42.8911 97.8297 45.5276 102.303 46.2033 107.427H49.7578H52.8279H85.951C86.0834 105.19 86.5029 102.982 87.2053 100.802H54.4149V100.802Z" fill="#FDC4A6"/>
<path d="M55.5507 29.3707C55.3409 29.5275 55.1443 29.6974 54.9589 29.883C53.9607 30.8833 53.3424 32.2612 53.3424 33.7872V70.3265C53.3424 77.9109 46.7178 77.9109 46.7178 70.1822V33.7872C46.7178 32.2615 47.3361 30.8833 48.3343 29.883C49.3325 28.8848 50.7148 28.2665 52.2385 28.2665C53.4795 28.2668 54.6277 28.6774 55.5507 29.3707Z" fill="#FDC4A6"/>
<path d="M68.4547 3.76851L70.4954 7.90359C70.7336 8.38617 71.1941 8.72062 71.7266 8.79797L76.2901 9.46101C77.6312 9.65601 78.1668 11.3041 77.1962 12.2501L73.8943 15.469C73.509 15.8447 73.333 16.3859 73.4242 16.9162L74.2037 21.4612C74.4327 22.797 73.0309 23.8155 71.8311 23.1851L67.7495 21.0391C67.2733 20.7886 66.704 20.7886 66.2277 21.0391L62.1461 23.1851C60.9465 23.8158 59.5445 22.7972 59.7735 21.4612L60.553 16.9162C60.644 16.3859 60.4682 15.8447 60.0829 15.469L56.7808 12.2503C55.8102 11.3044 56.3458 9.65625 57.6871 9.46125L62.2504 8.7982C62.7829 8.72086 63.2434 8.3864 63.4815 7.90383L65.5222 3.76875C66.122 2.55328 67.855 2.55328 68.4547 3.76851Z" fill="#32E3B5"/>
<path d="M12.7409 9.48281L14.7816 13.6179C15.0197 14.1005 15.4803 14.4349 16.0128 14.5123L20.576 15.1753C21.9171 15.3701 22.4527 17.0184 21.4824 17.9644L18.1803 21.183C17.7949 21.5587 17.6189 22.0999 17.7101 22.6303L18.4896 27.1753C18.7186 28.511 17.3168 29.5296 16.1171 28.8991L12.0354 26.7532C11.5592 26.5026 10.9899 26.5026 10.5136 26.7532L6.43198 28.8991C5.23245 29.5298 3.83042 28.5112 4.0594 27.1753L4.83893 22.6303C4.92987 22.0999 4.75409 21.5587 4.36878 21.183L1.0669 17.9646C0.0963555 17.0187 0.631902 15.3705 1.97323 15.1755L6.53651 14.5125C7.06901 14.4351 7.52956 14.1007 7.76768 13.6181L9.80839 9.48304C10.4082 8.26757 12.1411 8.26757 12.7409 9.48281Z" fill="#32E3B5"/>
<path d="M38.455 3.76854L40.4957 7.90362C40.7338 8.3862 41.1944 8.72065 41.7269 8.798L46.2901 9.46104C47.6312 9.65604 48.1668 11.3042 47.1965 12.2501L43.8944 15.4688C43.5091 15.8445 43.333 16.3857 43.4242 16.916L44.2037 21.461C44.4327 22.7967 43.0309 23.8153 41.8312 23.1849L37.7495 21.0389C37.2733 20.7884 36.704 20.7884 36.2277 21.0389L32.1461 23.1849C30.9466 23.8156 29.5445 22.797 29.7735 21.461L30.553 16.916C30.644 16.3857 30.4682 15.8445 30.0829 15.4688L26.7808 12.2501C25.8102 11.3042 26.3458 9.65604 27.6871 9.46104L32.2504 8.798C32.7829 8.72065 33.2434 8.3862 33.4816 7.90362L35.5223 3.76854C36.1223 2.55331 37.8552 2.55331 38.455 3.76854Z" fill="#32E3B5"/>
<path d="M94.1699 9.48284L96.2106 13.6179C96.4487 14.1005 96.9092 14.4349 97.4417 14.5123L102.005 15.1753C103.346 15.3703 103.882 17.0185 102.911 17.9644L99.6092 21.1831C99.2239 21.5588 99.0479 22.0999 99.1391 22.6303L99.9186 27.1753C100.148 28.511 98.7458 29.5296 97.546 28.8992L93.4644 26.7532C92.9881 26.5027 92.4188 26.5027 91.9426 26.7532L87.8609 28.8992C86.6614 29.5299 85.2594 28.5113 85.4884 27.1753L86.2679 22.6303C86.3588 22.0999 86.1831 21.5588 85.7977 21.1831L82.4956 17.9644C81.5251 17.0185 82.0606 15.3703 83.4017 15.1753L87.9652 14.5123C88.4977 14.4349 88.9583 14.1005 89.1964 13.6179L91.2371 9.48284C91.8371 8.2676 93.5701 8.2676 94.1699 9.48284Z" fill="#32E3B5"/>
<path d="M89.293 120H42.7812C41.8752 120 41.1406 119.265 41.1406 118.359V109.068C41.1406 108.162 41.8752 107.427 42.7812 107.427H89.2932C90.1993 107.427 90.9338 108.162 90.9338 109.068V118.359C90.9336 119.265 90.1991 120 89.293 120Z" fill="#4747D9"/>
</svg>
