<svg width="119" height="119" viewBox="0 0 119 119" fill="none" xmlns="http://www.w3.org/2000/svg">
<g clip-path="url(#clip0_40_1485)">
<path d="M87.6734 49.8173H87.7134C91.1546 49.8173 93.943 47.0266 93.943 43.5877C93.943 40.1465 91.1546 37.3555 87.7134 37.3555C87.6685 37.3555 87.6239 37.3555 87.579 37.3579H30.5339C30.489 37.3555 30.4444 37.3555 30.3995 37.3555C26.9583 37.3555 24.1699 40.1462 24.1699 43.5877C24.1699 47.0266 26.9583 49.8173 30.3995 49.8173H30.4395" fill="#FDC4A6"/>
<path d="M86.24 21.0877C68.1174 19.3308 49.9948 19.3308 31.8721 21.0877C30.4657 32.3557 30.0516 43.6235 30.6294 54.8916C31.05 63.094 37.6136 69.6229 45.8179 70.0104C54.6434 70.4271 63.4687 70.4271 72.2942 70.0104C80.4983 69.6229 87.0621 63.0942 87.4828 54.8916C88.0606 43.6235 87.6464 32.3555 86.24 21.0877Z" fill="#FDC4A6"/>
<path d="M31.8728 21.0858C40.9326 20.2072 49.995 19.7691 59.0573 19.7691C54.4693 19.7691 49.8813 20.2126 45.2933 21.0993C44.5795 32.4758 44.3713 43.8527 44.6634 55.2267C44.8554 62.713 47.5915 68.8176 51.1817 70.21C49.3946 70.1614 47.6047 70.0938 45.8179 70.0099C37.6152 69.6234 31.051 63.0942 30.6291 54.8913C30.0534 43.623 30.4671 32.3543 31.8728 21.0858Z" fill="#FDC4A6"/>
<path d="M59.0566 60.9594C55.8887 60.9594 52.9639 59.1098 51.6054 56.2471C51.1803 55.3511 51.5619 54.2798 52.4579 53.8547C53.3542 53.4296 54.4249 53.8113 54.8503 54.7073C55.6172 56.3235 57.2684 57.3678 59.0569 57.3678C60.8453 57.3678 62.4965 56.3235 63.2637 54.7073C63.6888 53.8115 64.7598 53.4296 65.656 53.855C66.552 54.2803 66.9336 55.3513 66.5083 56.2473C65.1493 59.1098 62.2245 60.9594 59.0566 60.9594Z" fill="#C32430"/>
<path d="M45.7911 48.8518C47.2236 48.8518 48.3849 47.1232 48.3849 44.9908C48.3849 42.8584 47.2236 41.1298 45.7911 41.1298C44.3586 41.1298 43.1973 42.8584 43.1973 44.9908C43.1973 47.1232 44.3586 48.8518 45.7911 48.8518Z" fill="#232323"/>
<path d="M72.3204 48.8518C73.7529 48.8518 74.9142 47.1232 74.9142 44.9908C74.9142 42.8584 73.7529 41.1298 72.3204 41.1298C70.8879 41.1298 69.7266 42.8584 69.7266 44.9908C69.7266 47.1232 70.8879 48.8518 72.3204 48.8518Z" fill="#232323"/>
<path d="M74.1514 30.4577C63.735 34.4816 48.9385 32.7073 41.4815 25.2503C41.4815 25.2503 39.7107 37.3576 30.5363 37.3576L26.5356 38.7031C15.8505 -3.23903 38.6411 7.96765 38.6411 7.96765C40.7928 3.79777 43.9268 2.07158 47.2014 1.65508C47.4896 1.61952 47.778 1.59279 48.0681 1.57489C48.0913 1.57489 48.1144 1.57303 48.1376 1.5714C50.4441 1.44869 52.7791 1.91655 54.8541 2.58407C55.5767 2.81719 56.2689 3.07355 56.9169 3.33874C59.5242 4.40486 61.4231 5.60253 61.8217 5.85889C61.8733 5.89445 61.9 5.91235 61.9 5.91235C64.2456 2.80835 66.4827 0 68.9421 0C69.9513 0 70.6488 0.386285 71.1169 1.00383C72.8912 3.32991 71.4337 8.92337 71.3163 9.36312L71.311 9.38264C71.3128 9.37915 71.3145 9.37195 71.3182 9.36312L71.3307 9.33104C71.6454 8.53709 75.1694 0 81.489 0C81.8876 0 82.2453 0.0374199 82.5639 0.108541C87.2746 1.14956 83.5873 9.38961 83.1815 10.2617L83.1708 10.2865C83.1601 10.3079 83.1529 10.3239 83.1494 10.3309C83.3504 10.0746 91.24 0.0585705 94.7458 4.65378C94.7477 4.65727 94.7477 4.65727 94.7493 4.65913C98.2859 9.32035 84.5625 26.4357 74.1514 30.4577Z" fill="#232323"/>
<path d="M94.7454 4.65378H94.7435C92.9708 2.88296 86.8309 11.2422 83.1436 10.3363L83.1703 10.2865C83.1596 10.3079 83.1524 10.3239 83.1489 10.3309C83.3502 10.0748 91.2395 0.0588007 94.7454 4.65378Z" fill="#232323"/>
<path d="M82.5633 0.108541C79.9004 -0.496221 77.4321 4.57243 76.0374 8.17056C75.3629 9.9107 73.2739 10.6089 71.6876 9.62575L71.3066 9.38961L71.3101 9.38241L71.3155 9.36288H71.3173L71.3299 9.33081C71.6448 8.53709 75.1688 0 81.4884 0C81.887 0 82.2449 0.0374199 82.5633 0.108541Z" fill="#232323"/>
<path d="M47.2005 1.65509C39.5799 2.99872 36.7004 20.4701 41.4806 25.2503C41.4806 25.2503 39.7098 37.3577 30.5354 37.3577L26.5347 38.7031C15.8494 -3.23902 38.6402 7.96767 38.6402 7.96767C40.7917 3.79779 43.9259 2.07159 47.2005 1.65509Z" fill="#232323"/>
<path d="M71.1163 1.00383C68.4378 -1.6746 66.6528 12.0611 60.6231 14.2607C54.5936 16.4604 54.0293 13.6485 54.0293 13.6485V13.6467C56.9978 12.5487 59.5035 9.07817 61.8972 5.91026C61.8991 5.91212 61.8991 5.91212 61.8991 5.91212C61.9721 5.81427 62.0451 5.71804 62.118 5.62205C62.2087 5.49933 62.3031 5.37638 62.3956 5.25552C64.5636 2.42393 66.6563 0 68.9415 0C69.9507 0 70.6482 0.386285 71.1163 1.00383Z" fill="#232323"/>
<path d="M48.1422 1.57322C48.1174 1.57322 48.0925 1.57322 48.0674 1.57508C48.0906 1.57508 48.1136 1.57322 48.1369 1.57159L48.1422 1.57322Z" fill="#ECC32E"/>
<path d="M95.0764 56.658L63.9549 63.4026L63.9544 63.4028V63.4021H55.045V63.4026L55.0446 63.4024L23.923 56.6577C20.7491 55.9684 17.748 58.3888 17.748 61.636V99.1031C17.748 101.501 19.4215 103.576 21.7643 104.083L55.0446 111.296L55.045 111.295V111.296H63.9544V111.295L63.9549 111.296L97.2352 104.083C99.578 103.576 101.251 101.501 101.251 99.1031V61.6362C101.251 58.389 98.2504 55.9686 95.0764 56.658Z" fill="#DFEAEF"/>
<path d="M104.603 65.3542V105.829C104.603 108.419 102.795 110.66 100.264 111.209L64.3132 119L59.6729 116.065V70.3227L64.3132 67.2627L97.9325 59.9767C101.361 59.2318 104.603 61.8465 104.603 65.3542Z" fill="#4747D9"/>
<path d="M59.6726 70.3227V116.065L54.6873 119L18.7361 111.209C16.2052 110.66 14.3975 108.419 14.3975 105.829V65.3542C14.3975 61.8465 17.6395 59.2318 21.0682 59.9764L54.6876 67.2624L59.6726 70.3227Z" fill="#4747D9"/>
<path d="M54.6875 119V67.2622H64.3121V119" fill="#4747D9"/>
<path d="M76.4505 80.9491C75.6236 80.9491 74.8796 80.3745 74.6974 79.5334C74.4873 78.5642 75.1027 77.608 76.0719 77.3979L95.957 73.0881C96.9271 72.878 97.8824 73.4934 98.0925 74.4626C98.3026 75.4318 97.6872 76.388 96.718 76.5981L76.8329 80.9079C76.7044 80.9358 76.5765 80.9491 76.4505 80.9491Z" fill="#32E3B5"/>
<path d="M76.4505 87.6221C75.6236 87.6221 74.8796 87.0476 74.6974 86.2064C74.4873 85.2372 75.1027 84.2811 76.0719 84.071L95.957 79.7612C96.9271 79.5513 97.8824 80.1665 98.0925 81.1357C98.3026 82.1049 97.6872 83.0611 96.718 83.2712L76.8329 87.581C76.7044 87.6089 76.5765 87.6221 76.4505 87.6221Z" fill="#32E3B5"/>
<path d="M13.4093 84.9107H11.5264C8.74598 84.9107 6.49219 82.6567 6.49219 79.8765V75.3575C6.49219 72.577 8.74622 70.3232 11.5264 70.3232H13.4093C16.1898 70.3232 18.4436 72.5773 18.4436 75.3575V79.8765C18.4436 82.6569 16.1895 84.9107 13.4093 84.9107Z" fill="#FDC4A6"/>
<path d="M14.3769 84.8156C14.0657 84.8802 13.74 84.9114 13.4095 84.9114H11.5251C8.74529 84.9114 6.49219 82.656 6.49219 79.876V75.3577C6.49219 72.5754 8.74529 70.3223 11.5251 70.3223H13.4095C13.74 70.3223 14.0657 70.3534 14.3769 70.418C12.0615 70.8682 10.3137 72.9082 10.3137 75.3577V79.876C10.3137 82.3257 12.0615 84.3657 14.3769 84.8156Z" fill="#FDC4A6"/>
<path d="M107.474 84.9107H105.591C102.81 84.9107 100.557 82.6567 100.557 79.8765V75.3575C100.557 72.577 102.811 70.3232 105.591 70.3232H107.474C110.254 70.3232 112.508 72.5773 112.508 75.3575V79.8765C112.508 82.6569 110.254 84.9107 107.474 84.9107Z" fill="#FDC4A6"/>
<path d="M108.441 84.8156C108.13 84.8802 107.804 84.9114 107.474 84.9114H105.59C102.81 84.9114 100.557 82.656 100.557 79.876V75.3577C100.557 72.5754 102.81 70.3223 105.59 70.3223H107.474C107.804 70.3223 108.13 70.3534 108.441 70.418C106.126 70.8682 104.378 72.9082 104.378 75.3577V79.876C104.378 82.3257 106.126 84.3657 108.441 84.8156Z" fill="#FDC4A6"/>
</g>
<defs>
<clipPath id="clip0_40_1485">
<rect width="119" height="119" fill="white"/>
</clipPath>
</defs>
</svg>
