<svg width="119" height="120" viewBox="0 0 119 120" fill="none" xmlns="http://www.w3.org/2000/svg">
<g clip-path="url(#clip0_40_1443)">
<path d="M118.999 54.5934V65.4065C118.999 73.999 116.604 82.0247 112.448 88.8447H92.8456V54.5934L64.0762 9.75818H74.5377C99.0936 9.75818 118.999 29.8312 118.999 54.5934Z" fill="#32E3B5"/>
<path d="M108.538 54.5934V65.4066C108.538 71.5938 107.296 77.4884 105.047 82.8527L90.9541 86.2228L87.0924 68.3077V54.5934C87.0924 47.6123 81.4615 41.9341 74.5386 41.9341H31.9078V51.6923L6.55151 31.1552L0 25.8462L31.9078 0V9.7582H64.0771C88.6327 9.7582 108.538 29.8313 108.538 54.5934Z" fill="#32E3B5"/>
<path d="M119.001 94.1539L87.0928 120L98.8622 94.1539L87.0928 68.3077L119.001 94.1539Z" fill="#4747D9"/>
<path d="M87.0922 68.3077L108.538 94.1539L87.0922 120V110.242H44.4614C19.9058 110.242 0 90.1688 0 65.4066V54.5935C0 46.0011 2.3958 37.9754 6.55151 31.1553L31.9076 51.6924V65.4066C31.9076 72.3877 37.5385 78.0659 44.4614 78.0659H87.0922V68.3077Z" fill="#4747D9"/>
</g>
<defs>
<clipPath id="clip0_40_1443">
<rect width="119" height="120" fill="white"/>
</clipPath>
</defs>
</svg>
